<svg height="512" width="512" xmlns="http://www.w3.org/2000/svg"><path d="M260.036 428.546a4.958 4.958 0 001.284-2.285l159.215-159.216a5 5 0 00-3.535-8.534h-79.168l53.935-169.987a5.01 5.01 0 00-.731-4.466 4.997 4.997 0 00-4.034-2.047H256.5c-.171 0-.333.033-.5.051-.167-.018-.329-.051-.5-.051H125a5 5 0 00-4.765 6.513l53.935 169.987H95a4.997 4.997 0 00-5 4.998c0 1.302.508 2.58 1.465 3.536L250.679 426.26a4.947 4.947 0 001.286 2.286c1.104 1.104 2.594 1.562 4.036 1.417 1.441.143 2.931-.314 4.035-1.417zm-75.001-162.083a5 5 0 00.729-4.465L131.832 92.01H255.5c.171 0 .333-.033.5-.051.167.018.329.051.5.051h123.668l-53.935 169.987a5.009 5.009 0 00.731 4.465 4.997 4.997 0 004.033 2.048h73.93L256 417.44 107.072 268.51H181a5.002 5.002 0 004.035-2.047z" fill="none"/><g fill="#202020"><path d="M156.304 266.011c2.699-.057 5.054.254 4.039.395 5.499-.377 5.617.051 6.329-.678 3.53-.358 7.295.137 3.279.434l10.177-.447-6.084-.113c.829-.303 3.259-.258 5.724-.225 1.566.029 1.633.035 2.055-.199.341-.208.495-.522.442-.745 0 0-.117.19-.383.381a1.606 1.606 0 01-.503.234c-.05.01-.1.025-.152.031-.118.015.071.002-.114.017l-.127.004-.063.002-.016.001h-.004l.097-.001h-.04l-.257.001-.516.003-5.508.029.55-.201c-2.508.217-7.38.127-9.079.041.268-.1.097-.262 2.04-.279-13.3-.047-3.583 1.061-14.619 1.262.693-.015 1.55-.007 2.733.053zM145.006 264.527l-4.64.76-7.783-.195c-.088.262-5.758.475-1.919.705.75-.041 2.234-.119 3.433-.096-.435.284-3.022.355-5.215.427-1.12.036-2.008.071-2.857.135-.737.063-.915.153-.19.296l6.531-.126c1.479-.046 2.663-.13 4.557-.36 5.644.053 9.753.184 12.388.391 1.675-.086 1.911-.434 4.039-.504-.471.008-.904.015-1.446.022l-.229-.853c-1.775.18-3.453.094-5.422.111l9.111-.996c-2.938-.799-11.89-.33-15.466-.662 4.434.719-3.535.357 5.108.945zM153.349 265.959zM363.217 137.456c.571-1.851.552-2.456.539-2.753l-6.58 20.794c.42-.583 2.584-6.487 1.442-2.445.803-1.709 2.325-7.209 2.286-8.089l-.152 1.61c1.103-4.922 2.961-7.934 2.216-4.733l.124-.405 2.604-13.776c-1.64 4.841-.638 3.926-2.479 9.797zM179.029 235.621c-.929-2.67-1.112-2.977-1.094-2.646.366.947.726 1.843 1.094 2.646zM366.302 124.438l.816-4.315c-.392 1.707-.675 3.226-.816 4.315zM364.812 155.652c.024.017.033.069.104-.028l.335-1.948a1.256 1.256 0 01-.016.048l-.423 1.928zM316.306 97.401l-1.431.037c.522-.004.992-.019 1.431-.037zM349.816 212.882l2.449-9.396c-.163 1.304 1.184-3.176.832-1.144.188-.716 1.145-4.047.741-3.184l-.583 1.891c.88-5.085-.313-2.215 1.743-10.457-1.988 4.891-2.324 7.206-2.863 9.959l-.676 2.448-1.506 7.981-.137 1.902zM134.38 108.026l-.084-.084c.048.087.07.098.084.084zM133.954 107.605l.342.336c-.265-.462-.971-2.332-.342-.336zM366.25 126.101c-.084-.166-.066-.747.052-1.663l-.606 3.22.554-1.557z"/><path d="M365.468 133.618l-2.376 7.816-.564 2.98c.814-3.021 1.83-6.534 2.94-10.796zM329.209 97.812c-16.921.107 4.156-.823-3.618-1.021-4.698.097-6.355.487-9.285.61 13.421-.334-1.819 1.287 11.717 1.08-1.926.707-9.762.771-14.354.579-5.198-.681 4.543-.499 5.72-1.167-5.431.111-4.475.235-6.779.615-8.528-.158-17.645.837-22.737-.107-6.174.15-5.768.476-9.317.835-.707.729 9.182.383 11.469.957-.474-.062-1.398-.185-1.13-.287l5.337.153c-5.066-.254.703-.729 3.411-.786 1.97-.015 5.885-.047 5.347.154l-2.982.157c3.839.23 8.47-.532 12.523-.137.212.164-1.322.241-1.555.342 4.542-.498 8.923-.469 15.646-.821l-3.897.723c5.378-.8 17.557-.573 25.996-.15-.936-.123-2.623-.208-1.61-.348 4.958-.173 8.702.323 6.406.704 2.375-.294 6.86-.178 11.591-.076l1.781.037c.105.001.073.003.083.004l.009.004.019.008.033.015a.25.25 0 00.122.023c.088-.009.208-.073.557-.248l.05-.015c-.005.013.287-.147.572.093.143.122.279.354.379.752l.036.156.017.084.008.043c0 .023-.019.104-.026.153l-.26 1.373-.529 2.801-2.837 15.018c.256-1.111.553-2.292.901-3.498 1.439-2.438 1.815-3.877.924.911 1.115-4.625.081-3.05 2.212-9.854-.541 2.762-.061 3.656 2.076-2.831l.512-1.869.247-.918.097-.38.07-.295.49-2.209c.287-1.382.493-2.579.627-3.587a82.93 82.93 0 00-4.463.641c-.639.111-1.227.224-1.764.337-.043.007-.047.014-.121.021l-.226.021-.452.042-.905.084-1.815.168c-4.854.446-9.829.873-15.36 1.192-.588-.489-13.108-.352-19.193-.467 2.323-.525 6.839-.675 11.525-.781l-11.761-.07-1.534 1.032z"/><path d="M368.856 96.168a25.703 25.703 0 00-1.321-.091c.241.04.635.072 1.321.091zM343.928 96.867c.059-.019.038-.033.059-.053l-1.486.038 1.427.015zM368.513 122.622l-.535 2.743.531-2.099c.154-.704.194-1.049.004-.644zM366.659 125.617l-.027-.577-.382 1.062c.068.144.193.051.409-.485zM264.548 93.389l-1.622.106c.978-.008 1.398-.051 1.622-.106z"/><path d="M310.36 96.981c5.885-.047.704-.73 9.028-.733l-2.443-.044c5.974-.313 16.471-.169 23.568-.194-.801.291 4.304.354 3.474.805 4.852-.106 9.655-.207 12.155-.672 3.005.152 7.571-.258 11.393-.065-1.613-.273 5.439-.924-3.859-.59.75-.037.279-.1 1.021-.138-5.991-.381-8.393.265-13.554.274-3.085-.269 5.046-.435 2.135-.543-6.444.251-20.222-.325-19.794.69-4.689.071-5.338-.152-6.735-.338-7.419 1.081-27.531-.464-27.463.918 2.708-.055 7.121-.025 11.095-.321l-.021.951zM371.433 113.181c.114-.344.266-.802.359-1.087l-.359 1.087zM345.158 182.753l-.117-2.619c4.032-13.421 5.807-18.174 9.478-29.863.401-.854.026.586-.163 1.316 2.505-8.242 6.583-20.469 8.084-26.571.835-2.61 3.285-9.381 2.715-6.706.327-1.295.714-2.772 1.206-4.225.432-.289-.949 3.3-.723 3.464.388-1.152.592-1.585.578-1.883-.353 2.035 1.692-1.69-1.213 7.398-1.841 3.292 1.918-6.334.46-4.508-.963 3.015-.542 2.762-.526 3.051-1.238 3.838-1.406 3.674-1.523 3.411-.22 1.552-2.099 6.277-2.368 8.431-2.31 7.495-.47-.597-2.01 4.288l-.085 3.071-2.729 8.069c-3.444 11.841 1.93-1.238-1.875 12.339.139-1.899-2.279 3.264-4.432 9.462 1.157-3.75 2.824-10.831 4.597-15.583-2.793 6.606 2.896-9.394 1.051-6.09-.725 3.473-2.458 9.097-4.031 13.413l.381-1.458c-1.563 4.625-1.834 8.415-4.194 14.732-.986 3.199-1.024 2.529-1.035 1.908-.736 2.738-1.344 5.201-1.526 5.153zm2.037-7.004l1.435-4.242c-.456.97-.956 2.563-1.435 4.242zM121.79 288.707l-.913-1.01c.182.238.534.615.913 1.01zM413.754 264.312c.43.003.858.006 1.295.006l-1.894 1.863 1.912-1.871-1.313.002zM369.33 314.006l-2.539 2.819a41.817 41.817 0 002.539-2.819zM143.615 310.616l.085.094.455.391-.54-.485zM285.377 395.155c-.458.357-.962.77-1.624 1.36.135-.015.735-.53 1.624-1.36zM369.798 313.486l-.174.151-.294.368.468-.519zM378.421 261.84l-1.66.084a22.103 22.103 0 001.66-.084zM382.077 264.242a37.49 37.49 0 00-1.613.085l1.613-.085zM340.708 235.938l.939-3.365c-.505 1.64-.77 2.631-.939 3.365zM372.836 263.687c-.203.039-.406.078-.541.115.483-.025.712-.076.541-.115zM105.879 269.222l.181.177.287.147-.468-.324zM108.713 265.929l3.941-.07a81.07 81.07 0 00-3.941.07zM243.386 409.99c-.567-.74-1.998-2.378-1.183-1.761-1.376-1.126-1.596-.739 1.183 1.761zM123.768 279.61c-.287-.125-.621-.335-.969-.562.617.443 1.101.783.969.562zM122.799 279.049l-.943-.673c.329.252.648.479.943.673zM260.206 408.451c.203-.121.488-.34.841-.67-.182.019-.472.273-.841.67z"/><path d="M116.071 265.994c.241-.101 4.697-.261 7.387-.408 2.667-.148 3.478-.283-4.405-.336.075-.314 2.64-.387 5.708-.4l3.911.001c1.062 0 2.045-.008 2.793-.047-2.173-.147 1.08-.403.421-.628l-2.486.15-1.497.058-.828.011-1.231-.008c-.43-.071-.41-.138-.055-.194.327-.057 1.168-.104 1.635-.141a47.64 47.64 0 014.262-.04c-3.58-.332 4.542-.498-.524-.752l-8.609.16c-3.449.075-6.694.146-9.796.212-6.057.169-11.253.404-15.6.771l2.637 2.319-2.213-2.144c7.939-.137 17.007-.263 23.851-.036l-2.774.543a163.917 163.917 0 00-10.463-.249l-9.792.082.883.891a77.396 77.396 0 00-.862-.882l17.174.275c4.36.227 5.024.366 3.978.461-1.063.095-3.896.146-6.92.195 1.527.007 2.939.04 3.415.136zM114.706 270.767l.185.016c.095-.02.236-.031.277-.055l-.462.039zM330.02 233.223l.132-1.098c-.186.893-.208 1.179-.132 1.098zM109.509 271.481l-.006-.006c.074.067.09.081.006.006zM321.56 260.597c.001-.059-.001-.117.009-.221-.022.149-.005.149-.009.221zM333.854 261.658c.017-.028.036-.049.045-.086-.102-.056-.097.005-.045.086zM321.603 260.628c-.017.001-.041.028-.043-.03.009.031.009.102.043.03zM369.827 299.245s.36-.228.886-.626c.144-.215-.077-.077-.886.626zM388.738 281.473l.378-.293-.378.293zM246.069 416.138a255.356 255.356 0 003.785 3.743 183.576 183.576 0 00-3.785-3.743zM321.569 260.377a35.91 35.91 0 01.32-2.014c-.2 1.102-.285 1.674-.32 2.014zM343.807 329.152l.522-.606-.354.316-.168.29z"/><path d="M333.953 338.44c.283-.37.388-.565.531-.788-3.256 3.575-9.706 9.678-10.04 10.83 1.149-1.17 7.399-6.938 6.615-5.675 2.279-2.483 6.086-5.717 7.301-7.066-4.133 3.686-.768.077 1.733-2.7 2.52-2.28-.122.781 2.021-1.21l5.508-5.6-4.891 4.784 1.075-1.863-.456.53c-8 8.369-1.27.12-9.397 8.758z"/><path d="M334.485 337.652a29.04 29.04 0 001.215-1.408c-.767.778-1.027 1.118-1.215 1.408zM300.397 370.441l-1.386 1.512 1.386-1.512zM360.684 149.92c-.218.144-2.579 6.47-2.135 6.484l1.956-5.72.179-.764zM210.15 372.507l1.589 1.604c.132.097.259.19.357.264-.28-.37-1.387-1.366-1.946-1.868zM329.728 344.424c.828-.921 1.17-1.357 1.332-1.616-.542.589-1.026 1.151-1.332 1.616zM210.57 371.487c-.59-.763-1.456-1.892-1.481-2.148-1.382-1.388-2.513-2.2-3.979-3.554 1.635 1.547 3.444 3.417 5.46 5.702zM204.99 365.677l.12.108-.12-.108z"/><path d="M362.071 146.151l.457-1.736-.174.924 1.527-4.383a63.5 63.5 0 01.513-1.842 2.773 2.773 0 00-.103.678l.497-1.402c.695-3.655 3.167-12.516 3.721-15.124.881-3.402 2.077-7.528 2.924-10.085-.763 2.377-1.681 5.563-1.146 4.689 1.776-4.755 3.222-6.881 5.267-15.411l-1.543 4.894 1.261-5.545.819-4.153c1.386-3.066-.71 3.805-.944 5.676a76.35 76.35 0 01.795-2.845c.259-.854.53-1.682.811-2.498.56-1.628 1.159-3.22 1.72-4.735-2.678-.146-5.242-.241-7.089.162-.158-.244-.381-.57-1.323-.829-.917-.258-2.71-.45-5.634-.426 4.245.557-3.529.358-.047.954-2.034.279-6.567-.176-6.906.189l.551-.202c-10.053-.773-13.345.438-17.646.837-12.037.199-17.565-.117-27.383-.035-.386-.327-3.059-1.227-6.997-1.192-1.831.442-10.716.647-11.622 1.215 7.041.236 5.761-.476 9.977-.608 3.509.595.317.588 5.11.943-3.868-.231-17.478.31-21.714-.248l1.495-.078c-6.762-.339-8.054-1.741-19.319-.893l-5.376.348c.26-.057.289-.123.427-.174-2.803-.019-4.469-.097-5.754-.179l-3.557-.228.086.004c-1.43-.036-3.36-.003-6.886.183.751-.039.28-.102 1.042-.14-5.537-.317-11.122.324-15.308.458-2.555-.472.606-.465 2.188-.808-9.741-.181-20.253.632-26.303 1.21l-6.279-.276c3.724-.196 8.275-.696 7.139-.981-3.453.095-2.785.319-7.668.229.833-.303 2.882-.585 5.178-.966-10.1-.504-2.258 1.073-9.326.146-3.174-.006-5.017.437-5.364.802l-5.749-.477c-.639.466-7.736.493-12.388.564-.568.201 3.745.496 5.508.315-.347.365-5.295.538-8.478.532-1.166-.975-20.836.145-17.074-1.005l-22.811.389 3.118 9.209a419.533 419.533 0 002.842 8.125c.684 3.047 2.589 9.095 1.003 5.611 3.476 10.97 6.225 16.324 9.425 27.292.169.938-1.57-4.919-1.757-4.434 2.63 6.998 3.714 13.072 7.465 24.034-.606-1.852-.97-2.333-1.148-2.56.093-.243 1.755 4.422 2.811 7.23.429 1.631-.79-2.103-.623-1.164 6.315 21.471 12.735 37.319 19.423 58.545-1.91-6.062-3.252-8.156-3.525-8.141l1.872 5.938c1.033 2.189 2.446 6.645 3.858 10.298.03.494.48 2.347-.252.543 1.548 5.96 3.282 10.449 5.158 15.256.938 2.403 1.912 4.887 2.916 7.673a161.45 161.45 0 011.528 4.435l.195.602a6.683 6.683 0 01.284 2.601c-.087 1.174-.581 2.437-1.284 3.368l.104-.177c.047-.083.256-.434.37-.707a6.602 6.602 0 00.581-2.659 6.33 6.33 0 00-.236-1.778c-.195-.673-.386-1.044-.583-1.57l-1.241-3.122-3.381-8.501.933 4.442-2.992-7.47c1.108 4.676 3.157 8.399 2.864 9.098-.438-.924-1.133-3.263-1.409-3.256 1.209 4.443 1.667 4.678 2.803 7.946-3.706-8.386-9.095-25.423-12.236-34.516-.532-1.418.621 1.162.799 1.387-1.219-3.73-1.635-6.069-3.293-10.725-1.329-2.796.413 2.324 1.107 4.658-.45-.209-.8-1.383-1.672-3.951.288-.709-4.336-14.239-4.825-17.75-4.528-13.762-.504 2.59-4.579-10.954l-.745-4.195c-2.895-7.695-6.471-17.701-9.167-26.592l.609 1.861c.622 1.171.11-.928-.062-1.874-1.895-6.765-4.449-12.573-5.203-16.796-2.987-7.453-7.443-20.044-10.504-28.678-.045-2.577 4.208 11.195 5.798 14.687l-2.523-7.943c1.567 4.908 2.449 6.762 3.783 9.579-2.079-7.003-3.419-9.098-5.691-15.641.354.453.191-.465-.769-3.512l-.74-.716c.02-.068-.051-.416-.32-1.365l-4.864-14.344c.774 3.134.338 3.166 1.68 7.413-.087-.746.172-.213.604.99.217.604.479 1.378.768 2.259l.737 2.293c-1.148-2.563.683 3.042.411 3.057l-3.094-9.667-3.359-10.23 3.375-.054 2.372.45c2.137.028 4.27.033 6.376.027l5.569-.04c2.883-.033 5.521-.063 7.585.002l-1.301.24c7.301.136 14.489-.155 20.972.283 6.512-.516 14.71-.946 20.032-1.485 2.847-.582 19.108.726 26.45-.094.495.062-5.042.438-7.548.659 4.884.089 8.767-.635 10.297-.023-10.96-.203.589.488-4.348.663 5.131-.012 10.542-.124 13.059-.343-8.305.006 2.949-.846-5.458-.578 6.515-.516 15.405-.723 23.167-.525-.077.264.88.387 3.774.496l2.334-.383c3.632.068-7.024.455.289.589a50.396 50.396 0 011.811-.121l.126 2.599c.053-.443.096-.887.128-1.333l.083-1.256c.009-.001.004-.002.026-.003l.119-.004.273-.011.783-.027 1.642-.038 3.496-.023 7.214.034c4.666.009 8.727-.072 10.251-.632 5.734.478-10.913.484-2.271 1.07-5.027.438-11.963-.063-13.62.541 4.928-.172 1.798.511 4.978.517l5.496-.373-1.216-.023c9.223-.571 23.836-.297 35.614-.394 9.977-.609 16.844-1.489 28.811-1.423-3.532.357 9.938.344 2.405.999 5.537.315 11.004-.058 11.112-.322-4.871-.091-1.713-.085-5.816-.215 2.771-.32 9.155-.306 11.778-.097-1.216-.023-.754.038-1.021.139 5.816.215 2.787-.318 6.991-.452.667.224 2.987.254 5.621.257l6.005.005c1.983.009 3.821.031 5.221.089 2.176-.15 4.353-.299 6.324-.299l-.33 2.163c.903-4.237-2.744 8.139-3.566 9.454l-1.105 4.312-.139.549-.088.386-.162.726-.346 1.495a79.382 79.382 0 01-2.076 7.201c.551-2.46-1.979 5.19-2.417 5.163-3.537 9.798-4.106 16.783-7.669 25.996-.003-.322.332-2.303-.642.411-.573 2.2-1.822 5.972-2.513 8.301l.011-.077-.026.125c-.338 1.141-.514 1.869-.424 1.928-.859 4.088-1.101 6.26-3.238 14.165.647-.424 2.556-7.064 3.31-9.963l.323-2.609c1.449-2.131 2.109-7.07 2.914-8.788-.661 4.938-5.137 18.346-7.195 26.587 2.211-4.722 5.713-15.408 8.602-24.785l-1.586 4.031 1.544-4.896-1.997 4.58c1.558-4.608 2.702-8.655 4.059-12.835-1.547 4.908-2.794 6.615-1.813 3.872 2.19-5.321 1.51-5.791 2.863-9.96-.78 2.313-1.748 5.335-1.396 3.301 3.173-8.061 3.515-10.402 6.488-17.704-1.07.683 2.893-9.385 2.613-10.709l-1.168 3.456 1.871-7.522a25.52 25.52 0 01.764-1.677c.229-.505.335-.655.362-.572.03.071-.034.422-.104.779l-.144.832c-.1.553-.169.993.019.657.094-.168.253-.53.504-1.169l.108-.281.174-.489.398-1.13 1.014-2.922c2.223-6.894 3.339-10.825 4.101-13.765-5.094.233-8.374.544-15.99.582 2.943-.326 8.966-.62 16.252-.773a429.249 429.249 0 01-3.02 9.876l2.342-6.611c-.367 1.619-1.781 6.259-3.407 11.436l-3.161 9.901c1.666-7.082-1.188 3.184-2.6 6.198.262.719 1.601-3.742.294 1.613 1.549-4.913 1.74-5.644 3.89-11.836-4.486 13.438-2.311 12.631-6.423 24.297 1.522-5.496-1.242 1.69-1.665 2.276-.758 2.573-2.297 7.792-2.862 9.96l1.255-1.727c-1.902 6.954-4.019 8.908-5.87 17.042.058 1.152 2.342-6.929 1.964-5.479-3.037 10.97-5.311 14.548-8.849 24.021.021.606.463.623-.266 4.098-.05-1.18-1.038 1.249-.118-2.629-1.185 3.167-2.111 7.07-2.862 9.957 2.353-6.629-.315 2.917-.477 4.225-1.167 3.45-.049-1.18.517-3.351-.987 2.753-2.605 5.884-2.53 7.65-.44-.019 1.403-8.128 2.938-13.327l-1.17 3.461c.554-2.465.755-2.895 1.915-6.332-1.389 3.284-1.63 2.84-1.669 1.96.2-.424.019.277.21-.128.987-2.75 1.554-4.921 1.133-4.344.249-2.676-1.565 3.753-2.436 5.552a7663.77 7663.77 0 00-1.239 4.283l-2.838 15.018c-1.756 6.243-3.057 8.888-4.793 13.445l.063 1.422c-1.754 5.361-3.512 10.387-3.012 6.753.218-.144.406-.866.799-2.026-.015-.174.026-.458.097-.81.008-.121.001-.191.003-.292l-2.805 9.768c2.422-9.991-.695-.758-1.007-2.657l-2.862 9.96c2.162-5.901.441.02-.12 2.179-.653.438-2.52 7.954-3.685 11.398l-.015-.286c-.59 1.578-1.319 3.775-2.044 6.084l-.45 1.46-.231.812c-.129.533-.33 1.026-.295 1.497.096-.084.324.468.965.812.621.376 1.545.333 2.024.08-.482-.081-.68-.347-.751-.485-.071-.153-.035-.229.025-.261.127-.059.389-.021.487-.194.075.132.324.249.398.188.271-.076-.111-.262.032-.444a.762.762 0 01-.478-.707c.008-.146.037-.291.055-.444l.029-.23.014-.118c.005-.028-.002-.021.012-.078l.083-.301c.879-3.199 1.531-5.875 1.678-7.465-1.006 2.146-.929 3.906-1.921 6.348.708-3.753 2.273-8.386 4.207-14.44l1.022-1.863 1.723-6.164c-.601 2.61.294 1.208-1.658 7.63.628-.7 1.93-6.371 3.296-10.249l.117-2.168c.044.864 2.76-7.503 1.265-1.42l-2.65 9.826 1.209-2.581-2.5 8.225.345-2.018c-1.908 6.638-2.475 7.526-3.013 8.436-.269.455-.53.915-.949 2.101-.21.593-.458 1.368-.767 2.415l-.511 1.785-.294 1.067-.157.58c-.045.173-.137.492-.11.442.245.363.354.46.494.583.142.131.27.168.523.232-.197.074-.296.19-.317.336-.037.146.046.32-.211.512.116.034.236.056.351.066l.167.009.722-.006a45.824 45.824 0 002.953-.133c1.725-.134 3.07-.334 4.701-.462 1.602.348 2.741.633-2.876.582-.703.729 7.39-.127 7.901.625 9.304-.012 13.031-.618 17.152-1.104a78.756 78.756 0 017.222-.55 121.03 121.03 0 015.23-.04l3.266.068 4.043.138-.247.048-.252.049c-.068.018-.104.036-.16.056l-.407.15 10.394-.121 9.917-.053 18.172.003c-6.003 5.986-12.048 12.024-19.183 19.3l-7.149 6.604-.652.601-.394.343c-.235.203-.468.401-.692.595l-1.228 1.053-1.198 1.027c.378-.419.902-1.026 1.442-1.674l.806-.984.379-.48.179-.231.089-.115.159-.187c1.673-1.963 2.408-3.033.555-1.442 3.267-2.716 6.609-5.88 9.945-9.101 3.357-3.241 6.703-6.536 10.522-10.06.249-.535-2.778 2.285-4.167 3.497 2.849-2.842 5.075-4.81 8.02-7.682a166.847 166.847 0 00-5.397.018c.021.08 1.958.169 3.068.249 1.115.08 1.416.152-1.681.2l-9.174-.48c-7.025.115-8.933.401-11.02.633-1.041.115-2.12.217-3.862.275-.871.029-1.908.048-3.194.053l-2.131-.004-2.336-.029.333-.082.614-.086 1.466-.177c1.064-.12 2.299-.241 3.661-.352 2.719-.221 5.972-.401 9.189-.452-3.686-.047-1.16-.111 1.538-.196 2.683-.085 5.576-.19 2.223-.319-5.917.317-9.864.351-14.361.354l-5.926.015c-1.468.019-3.122.062-5.09.161.924-.088 1.169-.213 3.105-.252l-11.422-.268c2.826.371-9.435.408-8.372.959 12.173.229 8.596-.105 22.467.207-3.927.125-8.99.686-11.363 1.201-.12-.021-.32-.039-.747-.049-2.12.545.041.691 0 1.645 3.166-.338 5.807-.368 8.591-.362l4.364.002c2.148-.014 4.595-.052 7.354-.149 1.195-.261-.285-.428-2.884-.512a151.063 151.063 0 00-4.416-.066 80.646 80.646 0 00-3.021.047l3.417-.172 5.146-.174-2.09.24 25.204.176c-4.866.027-7.053.33-9.795.559 3.084.02 5.906.158 8.73.309.308-.295.849-.539 1.938-.687-.088.23-.551.773-1.472 1.688-5.871 5.788-10.541 10.257-14.204 13.641a235.641 235.641 0 01-4.809 4.334l-.51.444-.448.38-.688.548-1.269.976-.859.909c1.634-.913-4.747 6.045-6.732 8.768-.257-.489-4.14 3.691-6.52 5.691-.737 1.594 1.408.63 4.425-1.687 4.746-5.529 2.483-3.274 4.355-6.257l7.878-8.619-1.508 2.191a69.87 69.87 0 001.558-1.495l2.096-2.111 3.846-3.969c2.187-2.263 3.57-3.65 3.794-3.43-1.41 1.706-3.685 4.039-5.951 6.364l-1.696 1.744-1.551 1.621a28.54 28.54 0 00-1.693 1.989l1.441-1.279c.181-.159.36-.319.529-.469l.67-.618.736-.686-1.881 2.097c-.388.426-.71.755-.99 1.021-.561.532-.956.815-1.388 1.125-.863.62-1.869 1.35-4.623 4.408 2.516-1.761-.5.554-2.735 3.296 2.261-1.734 10.125-10.341 9.021-7.952-2.742 3.304-10.921 9.416-14.281 14.054l.123-.269c-5.982 5.816-7.688 8.256-9.667 10.695-2.718 2.303-5.891 6.062-8.589 8.805l-.12-.253-3.76 3.916c1.487-2.168 4.507-4.489 7.755-7.836l-.757.063c4.213-3.39 6.122-6.551 8.771-9.797-3.99 4.59-12.2 12.029-12.529 13.715l-3.004 2.305-1.144 1.396c-2.24 1.715-.634-.717 3.122-4.63.754-.578 1.13-.868 1.001-.594 1.624-1.935 2.989-3.838 7.376-8.064l-2.114 2.481c5.387-5.337 10.128-10.347 11.622-12.523-7.886 7.597-15.528 15.179-22.781 22.463-1.36 2.929-3.464 5.912-3.828 7.733-4.742 5.012-11.264 11.733-15.767 15.703l.246-.533a90.156 90.156 0 00-5.513 5.608c-2.374 1.992 1.109-1.88-.516-.462l-6.741 7.229c.101-.761 5.978-6.641 8.746-9.455-.499.555-1.508 1.673-1.122 1.376 3.383-3.111 8.87-9.723 10.767-10.665 1.499-1.665-2.861 3.566 2.52-1.765 3.766-3.407 4.505-5.003 4.737-5.521-.129-.246-5.885 5.372-4.137 3.174-2.768 2.814-3.639 4.167-7.389 7.557 2.744-2.789 6.122-6.925 7.886-8.108 5.122-5.819 3.46-5.911.833-3.381.889-.339-9.641 10.318-2.109 3.503-2.868 3.576-8.752 9.466-12.747 13.901l.121-.263-5.145 5.322c.639-.835 2.137-2.501 2.003-2.738l-6.747 7.748c3.743-4.416-2.763 2.296-4.768 4.004-.491 1.063-3.112 4.103-.232 1.55 3.261-2.846 1.623-1.932 4.378-4.73l-3.481 4.383-.381.293-1.998 2.736c-5.382 5.329 1.482-3.197-5.02 4.026l1.396-.391c-8.02 7.871-18.789 17.51-24.171 23.355 1.263-1.834 1.485-2.977-.917-1.12 2.508-2.334 7.354-7.217 10.779-10.736.757-.579-3.743 4.933-7.624 8.596 2.651-1.004 8.991-9.984 10.269-9.594 9.902-9.319 6.365-7.973 15.013-15.641-.26-.485 2.137-2.501 2.237-3.259-3.022 1.807-10.885 10.927-16.391 16.007.491-.545 1.478-1.644 1.611-1.918-3.894 3.675-5.374 5.321-7.879 8.103l.377-.288c-4.255 4.982-3.136 2.579-6.019 5.135-.998 1.108-4.886 4.78-4.005 4.446l-5.276 4.569.653.179c-2.753 2.801-3.635 3.134-5.898 5.903l.256.489 7.025-6.767c-3.373 3.616-.617 1.33-4.38 5.249 3.883-4.697-3.241 2.828-4.01 2.905l-2.615 3.034.624-.821a19.302 19.302 0 00-2.483 2.466l-1.078 1.234c-.46.502-.739.805-1.98 2.021l.968-.889.617-.538 1.113-.959a88.214 88.214 0 002.141-1.896c1.426-1.309 2.896-2.781 4.709-4.857-1.312 1.521-3.313 3.742-5.156 5.757l-2.542 2.755-2.827 2.921c-2.796 2.965-5.248 5.328-7.605 7.555-2.001-2.111-3.944-4.194-6.147-6.436 3.444 3.334 3.928 3.486 4.113 3.319.177-.173.08-.64 2.034 1.13 1.382-1.516 3.831-4 8.429-8.454-.249.392-1.657 1.768-2.22 2.242.647-.409 1.636-1.282 2.798-2.411l.721-.71.58-.597 1.203-1.302c1.625-1.805 3.279-3.802 4.348-5.053-.872.323 1.485-2.17-2.777 1.79.763-.587.049.432-1.372 2.059a71.431 71.431 0 01-2.565 2.77l-2.233 2.226c-.787.769-1.577 1.522-2.344 2.233l.362-.949.328-.914c-1.752 1.723-3.505 3.445-5.257 5.198l-2.907-2.986.767.712c-1.462-1.84-3.557-3.899-6.006-6.272-1.779-1.704-3.8-3.611-5.65-5.683-3.04-2.622-13.735-13.65-9.676-8.363-3.153-3.887-6.709-6.509-10.628-10.271l4.548 5.027c-6.08-5.24-4.179-3.882-9.375-7.744-.298-.618-1.175-1.76-.086-1.008-7.573-7.635-18.267-18.66-23.208-22.642-5.334-5.386-5.485-6.917-13.276-14.167-1.667-1.501.686 1.783-4.125-3.365-.292-.378 5.229 4.359-.363-1.14-4.399-3.497-9.026-9.524-14.555-14.271-2.55-2.875-7.317-7.52-5.98-6.896 4.215 4.378 10.37 10.384 11.467 11.139-.809-.378 2.847 3.265-.485.264 6.225 6.765 4.437 3.994 10.078 10.005.545.259-2.6-3.39-3.977-4.512.46-.514 11.724 11.253 7.129 5.489-6.184-6.268-9.048-7.1-13.931-13.009 2.459 1.866 5.591 5.5 8.85 7.736l-4.238-4.63-3.57-2.866.264.119c-7.385-8.276-7.746-6.741-14.997-13.504 3.721 4.397-1.784-.094 1.063 3.168-4.748-4.624-8.124-8.13-7.667-8.648 9.163 8.368 1.013-.019 9.603 7.6-1.155-1.505 2.643 1.216-2.132-3.667-5.79-5.094 1.222 2.033-4.366-3.232-.277-.364-.566-.741-.306-.623-2.749-2.242-2.82-3.004-6.121-5.744l.814.619c-3.428-4.021-4.409-3.739-7.292-7.267.92 1.644-2.449-1.855-4.663-3.618 3.113 3.387 4.353 5.665 10.792 12.047 1.061.488.751-.139 3.522 2.356l-4.202-4.133c.946.853 1.705 1.463 2.586 2.23l3.854 4.151c-5.279-4.871-3.258-2.237-5.712-4.097-4.519-4.769-3.911-3.753-6.738-6.768.713-.126-8.237-9.672-13.315-15.29l2.464 2.498c4.149 3.619-2.322-3.022-2.351-3.281l-3.041-2.621c.562.504 1.397 1.143.249-.124l-1.676-1.588-1.464-1.33c-.888-.784-1.625-1.397-2.375-2.024-1.5-1.253-3.062-2.566-6.018-5.445.047-.184 1.459.938 2.401 1.615.95.688 1.452.952-.056-.677-.326-.514-1.007-1.526-2.277-3.058-1.284-1.544-3.116-3.565-6.093-6.447l1.756-.047c.37-.125 2.65-.195 5.403-.248-.365.018-.837.029-.972.053l6.674.357c-1.799.225-3.796.225-5.947.183-2.134-.043-4.422-.129-6.379-.076.76.726 1.592 1.477 2.513 2.245l1.458.708c2.647 2.645 6.606 6.28 8.5 7.785-3.644-3.771-4.615-4.546-9.178-8.953.094-.143 1.041.597 1.981 1.385.945.792 1.899 1.645 2.139 1.859l-1.232-.805c2.039 2.349 4.235 4.366 6.439 6.33 2.221 1.98 4.515 3.975 7.329 6.858.844.875.292.378.029.258 4.974 4.247 9 9.269 13.96 13.271l-1.659-1.264 15.864 14.094.194-.098c-.574-.75 1.658 1.493 2.8 2.753l-.008-.004 8.677 7.747a40.254 40.254 0 00-2.63-3.003c-1.106-.764-6.444-6.383-6.082-5.242-2.297-2.767-6.711-6.507-8.422-8.514 3.136 3.637-2.726-1.991-3.534-2.369-.893-1.385-5.038-5-4.264-4.888-.582-.754 1.444 1.883 3.082 3.125 3.855 3.239-6.223-6.766-1.511-2.639-2.926-2.694-6.216-5.918-9.536-9.155l-4.963-4.801-2.314-2.18a982.545 982.545 0 01-1.958-1.766l2.623 2.894-2.122-2.16-2.451-2.465c-1.596-1.611-2.929-2.987-2.914-3.131 1.669 1.592 3.51 3.44 5.592 5.39.291-.082-.841-1.212-2.06-2.395-1.216-1.18-2.547-2.438-2.37-2.49-1.879-1.546-3.922-3.257-5.563-4.897a7.07 7.07 0 01.716-.403 246.28 246.28 0 00-1.708-.008l1.493 1.522c-.496-.404-1.105-.962-1.824-1.66 1.7-.029 4.268.021 6.931.085l7.78.172c-1.447.342-3.305.364-5.656.324-2.318-.04-5.188-.144-7.784-.055l.765.71c1.832 1.638 1.703 1.263 1.617.948-.102-.33-.177-.616 1.269.707-.142-.258-.599-.768-1.18-1.342.82-.005 1.575-.056 1.975-.148l1.642.131c-.579.195-1.526.319-2.664.412l4.133 3.759c1.362 1.236 2.7 2.419 3.854 3.291-.309-.209-.605-.4-.772-.46.465.555.972 1.129 1.503 1.705l.901.954 1.335 1.357a196.866 196.866 0 005.409 5.231c-1.7-1.992-2.53-2.624-3.639-3.625-.016-.246 3.329 2.999 4.703 4.119-3.112-3.383-.333-.879-2.311-3.011 2.226 2.005 3.907 3.75 6.435 6.376 1.161 1.512-1.347-.864-1.304-.362 2.792 2.517 3.456 4.279 7.605 7.898-5.07-5.263 1.861.861 3.795 2.487l-.85-.883c1.908 1.369 3.309 2.749 4.195 4.128-2.226-2.005-4.195-4.128-3.868-3.252 1.409 1.385 2.813 2.766 4.477 4.266l-1.636-1.241 6.999 6.885c1.341.857 3.518 2.353 4.836 2.958 1.446 1.884 3.948 4.021 5.612 5.517l-.836-.634c2.855 3.269 9.841 9.908 10.63 10.269 1.997 2.379-16.825-14.103-1.163 1.163 5.881 5.877 4.344 2.979 7.936 6.099 0 0-.259-.119.029.259 2.523 2.622 3.041 2.621 5.265 4.626-1.438-1.646-3.669-3.887-4.488-4.508 1.06.488 5.333 5.383 7.529 7.129-2.998-2.118 4.805 5.141 2.593 3.381 4.833 5.399 10.652 10.522 13.664 12.885 2.92 4.024 6.162 6.016 11.541 11.906-.849-.883-2.503-2.371-3.656-3.643-3.562-2.861 5.655 6.022.391 1.399 1.113 1.002.261-.111-.878-1.141-1.936-1.857-3.875-3.489-3.559-2.853l4.282 4.901-1.688-1.519 6.541 7.398c.26.119-.306-.622-.598-1.001 7.894 8.271 17.375 17.274 24.399 24.413.782.115 3.068 2.088 5.997 4.848l6.787 6.504a64.076 64.076 0 002.048-2.247l.414-.494.096-.118.192-.216.427-.478a49.101 49.101 0 001.463-1.716c-1.25 1.817-1.589 3.156-.434 2.413l-.497.556-.268.316c-.055.072-.111.148-.17.228l-.84 1.113c-.645.831-1.509 1.856-2.432 2.718l-.12-.129c-.151-.31-.778-1.106-1.146-1.648-.375-.55-.487-.843.19-.347-2.254-2.142-2.274-1.945-1.786-1.176.459.739 1.527 2.152.629 1.621a131.6 131.6 0 002.231 2.115 128.47 128.47 0 003.173-3.532l.709-.82 1.002-1.118 1.904-2.149c2.466-2.794 4.665-5.328 7.005-7.872l.259-.024 4.002-4.444c-3.517 3.385-3.905 2.654.738-1.598l-.514.568c2.773-2.302 7.775-7.857 11.775-11.784l2.363-3.012c4.006-3.933 4.779-3.5 6.432-4.43 6.264-6.18 9.362-10.267 13.487-14.979 2.262-1.735 11.643-10.992 7.024-5.736 5.381-5.844 2.839-6.12 13.245-14.965l-2.244 2.752c9.149-9.256 21.769-22.885 26.276-26.858-2.483 4.307 12.422-10.567 14.951-11.31-.66.252 2.729-3.273 3.124-3.887.862-.652 2.226-1.813 3.38-3.335-3.769 3.409 1.596-3.45-4.905 3.771 2.859-4.084 6.854-9.036 14.491-16.612l.258.487-6.131 5.905c.883-.333-2.235 2.743-3.378 4.141 11.404-10.986-.593 2.338 10.803-9.155.863-1.348.247-.531 3.126-3.602-.693.705-1.038 1.186-.928 1.208.055.011.224-.092.521-.339.148-.123.328-.282.542-.481l.571-.545.491-.789.436-.733c.808-.497 1.059-.542.93-.266-.123.271-.607.846-1.132 1.447l-.774.889c-.365.404-.678.76-.879 1.012-.402.503-.357.596.604-.147-4.126 4.712-11.624 12.522-9.722 11.572 3.694-3.522 5.095-5.368 6.542-7.25.723-.94 1.458-1.89 2.497-3.063l.842-.925.901-.947a51.082 51.082 0 011.919-1.867l.943-.538c1.896-2.173 1.5-2.432 2.029-3.358.365-.134 1.052-.648 2.387-1.917l1.331-1.969-4.661.475a57.789 57.789 0 00-4.256.624c3.297-.203 5.278-.189 6.537-.113l-3.066 2.737c-1.063.982-2.17 2.09-3.938 4.078.379-.533 1.561-1.85 2.43-2.942.883-1.106 1.385-1.923.684-1.737l1.082-.334.681-.92c-2.355.2-4.183.34-6.21.202l2.041-.297a19.257 19.257 0 01-2.763.044l-1.208-.089-.601-.055-1.249-.053c-3.383-.137-6.537-.209-9.967.23 2.423.047 4.389.031 5.885-.049-4.475.234-10.089.182-14.952.092l-10.062.871c.088-.262-6.288-.277-3.212-.695-7.244-.4-10.659.385-14.846.516l-1.149-.095-.502-.057-.47-.063c-.517-.076-.613-.117-.402-.136.104-.01.287-.013.532-.012.219-.003.626.019.803-.001l1.711-.063c2.625-.084 6.268-.188 6.631-.553a359.603 359.603 0 00-7.691-.099c-.34-.004-.586.007-1-.009l-1.394-.069-2.757-.13-1.363-.062c-.457-.015-.91-.024-1.294-.15a8.876 8.876 0 01-2.285-.942 9.131 9.131 0 01-3.337-3.395 9.266 9.266 0 01-1.176-4.198c-.007-.346-.021-.675.033-1.016l.235-1.034.441-1.98.741-3.485-1.03 3.36c-.245.751-.389 1.099-.432 1.019.144-.239.603-1.913 1.138-3.957l.099-.37.081-.249.162-.508.327-1.028.596-1.884.15-1.607c1.378-3.575 1.407-3 .67.178 1.169-3.465 1.858-7.817 3.469-11.256-.747 3.037-1.808 6.423-2.774 9.448l-1.327 4.176c-.187.623-.359 1.2-.516 1.718l-.203.737c-.065.256-.105.382-.175.732.079-.343.123-.454.182-.666l.165-.56.32-1.068.609-1.947c.392-1.222.76-2.299 1.113-3.289.706-1.979 1.357-3.608 2.038-5.343 1.361-3.469 2.844-7.357 5.137-15.303.218-.144-.325 2.621.643-.414 2.111-7.072-.09-2.051.244-4.364-1.516 5.48-2.514 7.937-3.924 10.948l.193-1.529c.207-.175 1.294-3.574 1.745-4.533l-.263-1.047c.47.594 2.651-4.703 3.784-9.05-1.805 4.184-1.411 3.023-2.465 3.983 1.262-6.218 2.786-6.584 4.241-13.541.031.566-1.691 6.496.068 1.458 1.361-4.2.718-3.787 1.465-6.657-.511 3.337.118 2.638-.384 6.271-2.31 7.498-.964 3.014-3.065 10.393l2.384-6.053c-1.929 6.361-.892 4.788-.866 5.371 3.939-10.659 1.83-8.394 4.17-15.314.724-3.464-2.141 6.498-.833 1.135 2.139-6.487.146-1.588 2.248-8.963l-.159 1.296c1.005-2.14 1.34-4.464 2.11-7.064.751-2.89-2.753 2.669.922-9.028-.043.617-.021.855.036.874l.567 12.728a1974.356 1974.356 0 0112.824-39.076c1.843-2.97-2.431 10.001-1.796 9.279l-2.152 6.201c-.235-.461 4.051-13.138 1.646-7.684-3.255 11.124-5.243 16.008-7.853 26.712 1.853-2.995 4.232-13.846 7.029-20.46-.962 2.845-1.638 5.29-2.266 7.672l6.859-20.422.32-1.699c-1.649 4.878-2.796 8.251-2.965 8.68 2.137-6.484 3.424-12.117 2.961-12.739l-.388 1.149.559-2.411c.529-1.513 1.052-3.028 1.572-4.533zm-188.073 76.353c-.183-.377-.349-.667-.506-.871.164.211.136-.074.506.871zm160.247 44.773c-.965-.018-1.926-.012-2.88-.051a4.155 4.155 0 01-2.55-1.181 4.196 4.196 0 01-1.222-2.526 4.173 4.173 0 01.083-1.418c.113-.462.289-.904.432-1.354l4.04-12.191c-1.487 3.66-2.88 7.082-3.98 9.682-1.008 2.412-2.021 4.374-2.146 5.202-.095.396-.17.466-.254.125-.083-.344-.107-1.098.27-2.295l.604-2.18.396-1.376.446-1.48 2.444-7.818.436-1.671c-.593 1.619-1.344 3.842-2.146 6.33l-1.23 3.888c-.415 1.342-.861 2.91-1.275 4.332-.122.585-.313 1.303-.232 2.151.061.842.352 1.793.945 2.631.594.829 1.469 1.557 2.542 1.875.525.172 1.084.25 1.635.252.552-.008 1.094-.097 1.612-.148l5.276-.647c1.416-.18 2.299-.308 2.259-.344-.801-.174-1.785-.165-2.933-.127l-1.769.061c-.533.016-1.103.02-1.688-.008l.885.286zm6.275 2.082c5.16.139 3.985-.137 4.786-.385l-5.422.094c.686.063 1.024.151.636.291zm4.477-.633c-.58-.006-1.075-.018-1.334-.051l1.334.051zm4.613-80.076l-.146.51 1.178-3.524c-.187.459-.501 1.348-1.032 3.014zm-3.747 9.799l.063 1.304 1.103-3.303c-.316.311-.61.647-1.166 1.999zm-11.606 31.637c-.122 2.188-2.248 8.972-1.78 9.578.017.481.527-.926 1.085-2.51l1.861-5.694c-.065-.098-.02-.525.115-1.221-.708 1.971-1.279 3.257-1.392 2.332 2.431-4.875.887-4.778 2.852-10.257.137-1.899-2.377 6.038-2.741 7.772zm-163.11 101.986c-.078-.155-.379-.657-.82-1.345l3.118 2.678c5.072 5.265 8.573 10.045 13.774 14.147 2.04 2.315 2.913 3.772 3.786 5.127a149.257 149.257 0 01-2.815-2.972c-13.848-12.238-5.951-7.649-17.043-17.635zm58.641 60.209c-.561-.505-.825-.624-.825-.624a617.318 617.318 0 0115.86 14.243 527.278 527.278 0 016.327 5.988 321.975 321.975 0 014.85 4.758l.813-.809c-.182.081-.455.258-.813.523-1.904-2.411-5.09-5.991-7.468-8.595l2.719 1.981c-.019-.019.343.488.518.808l.447.736 3.288 2.617c-.408-.656-1.178-1.524-2.023-2.454l-1.278-1.409-.799-.89-.81-.932c-.262-.121-7.745-6.743-9.943-8.487l5.38 5.89c-1.419-1.625-8.979-9.015-12.037-11.885-.244.127 4.58 5.521 5.625 5.762.333.883-5.558-5.004-2.128-.985-4.706-4.12-11.482-11.386-14.604-14.779l-.09-1.013c-3.395-3.754-2.97-1.859-6.95-6.372 5.31 5.131-.377-1.389 3.81 2.729-1.152-1.5.46-.515-3.735-4.641-4.074-2.854-4.003-4.769-7.816-7.504-1.997-2.379 2.722 1.986-1.501-2.399-5.258-4.617-5.203-4.103-5.953-3.964 4.492 4.741 5.765 4.609 9.433 8.494l-8.271-6.75c1.277 1.492 2.29 2.527 3.18 3.356-1.553-1.465-2.948-2.635-4.2-3.576l-1.96-1.509c4.253 4.262 8.022 8.053 8.501 8.909l-.802-.371c1.309 1.705 3.92 4.006 5.21 4.98 3.835 3.788 7.942 7.295 8.496 8.407l-1.644-1.25c4.746 4.629 5.295 5.124 11.193 11.017zm155.163-101.76c-3.629 2.05-7.458 4.482-20.571 17.872l.988-1.098c-7.173 6.183-12.364 13.676-21.039 21.25 3.645-4.24 3.459-4.001 7.131-9.034l-4.006 4.453c.742-1.602-3.255 2.84-6.379 5.923l2.228-3.25c2.01-1.716 6.893-6.492 6.635-6.468-1.001 1.114 7.021-5.73 10.91-9.917-.763.07-9.148 8.736-5.907 4.363-3.118 3.593-3.88 3.664-7.266 7.293 3.126-3.602.36-1.306 2.612-4.062l-5.634 5.869c-.265.034 8.12-8.633 2.981-4.346-2.123 2.485-8.504 8.411-8.241 8.895l-.256.026c-4.392 4.23-1.368 2.425-6.875 7.505.125.25 1.265-.63 3.122-2.564 1.52-1.687 1.509-2.188 4.758-5.542 1.772-1.188-4.018 3.946-1.232 2.147 1.384-.893 8.503-8.928 6.643-5.959l-4.383 4.223c.264.484-2.874 3.579-2.485 3.792-2.494 2.769-5.397 4.832-7.76 7.844-.875 1.357 1.522-.143-3.119 4.108-4.026 2.922-14.156 13.267-17.911 17.18l-3.117 3.594c.514-.056 6.38-6.442 4.523-3.99l-5.144 5.323.26-.548c-1.766 1.702-3.385 3.631-4.885 5.294 1.361-1.898 5.241-5.563 4.103-5.202-2.533 2.38-3.052 2.61-5.238 4.945.466-.521.853-.983.735-.976-5.141 4.805-4.366 5.237-5.487 6.61-4.493 5.507 5.509-4.569 5.271-3.53l-14.384 14.813c1.12-1.373 2.25-2.754 1.62-2.443-3.76 3.401-.383-.221-5.392 4.825.89.174-5.998 6.661-9.242 10.521-1.877 1.44-2.262 1.738 1.359-1.896-.761.071-5.499 5.075-7.263 6.775-.917 1.089-2.578 2.851-3.586 4.012 1.625-1.281 1.221-.444-1.777 2.848l-.122.268c5.273-5.084 13.648-12.705 16.532-16.297l-.742 1.086c6.266-5.67 12.366-13.607 15.771-15.708.004.513 1.258-1.139 1.526-.662L299.32 376l-.745 1.083 7.391-7.56-.128.268 7.722-9.397c-.154-.171-.436.01.629-1.295a42.325 42.325 0 012.821-2.965c.006-.007.006-.007.005-.008l.002.002c1.881-1.786 3.337-2.774 5.69-4.938l-6.91 6.99c-.29.842.588.538 4.187-2.675-1.383 1.403-1.75 2.201.006.51.117-.262 4.378-4.731 2.494-3.288 6.502-6.703 17.916-16.667 27.416-27.217-6.887 7.518 6.143-5.402-1.739 2.706 6.022-5.139 4.367-5.237 10.125-10.856.644-.326-3.118 3.076-4.112 4.696 9.636-9.281 15.246-16.673 24.53-25.689l.736-.047 5.511-5.799zm18.796-19.655a211.204 211.204 0 013.04-3.126l-4.034.107.774.016-8.532.393c2.271.095 3.896.275 4.069.465.185.188-1.025.385-4.119.51.792-.201-.715-.449 1.624-.566-3.743-.293-13.65-.576-11.103.16 8.342-.695 1.382.938 7.668.422-1.842.24-3.372.306-4.883.339-.747.014-1.489.027-2.224.042l-1.117.035c-.417.021-.832.041-1.245.063 3.436-.402-.8-.91-5.961-1.102-2.246.119-8.325.006-12.058.199 1.331.451-1.919.709 4.163.822a86.89 86.89 0 01-9.553-.02c1.533-.078 4.215-.133 4.029-.297-2.496-.414-5.419-.395-7.032-.572l-3.848.072c.377.039.703.09.937.154l-4.274.398c5.693-.213 2.632.207 2.558.471.153-.527-3.665-.068-5.613-.051l4.232.557c-2.046.279-7.224-.402-6.155.15 8.981.221 12.435.125 20.557-.041l-3.297-.432c9.164-.307 5.652.742 15.935.721 1.068-.099 2.569-.149 4.223-.184l4.53-.077c2.552-.057 4.845-.162 5.387-.558-.653.12.476.296 2.028.397 1.572.101 3.592.127 5.381-.052.362-.057.759-.108 1.193-.157-1.151 1.977-7.388 8.364-4.829 6.237 1.051-1.046 2.108-2.24 3.176-3.363 1.075-1.132 2.175-2.205 3.565-3.263l-3.808 4.021 3.572-3.016c-1.749 1.553-.884 1.234 1.044.126zm-57.134-55.671l.082-.225a25.3 25.3 0 01-.083.252l.001-.027z"/><path d="M105.287 267.232c1.641-.18 6.897-.15 5.254-.537.831.426-9.312.065-5.254.537zM112.036 267.65c.178-.103-.333-.266 1.893-.28l-5.955.108 4.062.172zM120.929 270.562a26.844 26.844 0 012.731-.364c.513-.041 1.08-.07 1.742-.088a74.706 74.706 0 012.503-.017c.871.52-1.205.593-2.626.656-1.61.064-3.566.119-3.728.604a34.287 34.287 0 003.327-.086 38.35 38.35 0 001.36-.132l.664-.078.93-.083c2.451-.227 4.722-.475 8.031-.52-.82-.107-2.272-.205-3.993-.277l-2.737-.087-2.754-.041c-3.107-.017-5.787.118-5.45.513zM120.09 271.875l2.438-.235-.329-.06-2.459.234zM165.718 335.17c.055.516 2.253 2.261 3.366 3.262-.845-.875-1.988-2.138-3.366-3.262zM137.158 128.649l10.621 32.438-10.621-32.438zM247.303 413.754c-6.696-6.264-9.971-8.747-16.675-15.249 4.11 4.573 7.157 7.259 10.029 9.772 1.436 1.257 2.828 2.471 4.288 3.855a72.011 72.011 0 012.252 2.231l1.733 1.806 1.934 2.074-1.921-2.386-1.256-1.576-.384-.527zM243.186 413.301c-.321-.754 1.056.369 2.435 1.523l.514.431.253.212.39.349 1.337 1.169c.739.622 1.109.864.791.387l-2.214-2.117a25.572 25.572 0 00-.953-.832c-.5-.415-.789-.609-1.061-.796-.543-.372-1.018-.713-2.981-2.713l1.489 2.387zM220.972 376.784l2.191 1.739-1.665-1.499zM281.009 400.337l-.618.814 3.387-3.112zM279.775 401.967l.616-.815-.616.815zM224.426 378.381l-2.829-3.013-1.643-1.246zM247.881 406.478l-2.751-2.475c.545.493 3.941 4.245 2.751 2.475zM301.036 380.677l3.013-3.344-.367.281-3.003 3.334zM264.294 403.918c-2.137 1.473 5.123-5.302 1.115-1.883-3.252 3.355-1.738 2.188-1.115 1.883zM304.903 367.82c.429-.43.869-.893 1.267-1.364l-1.267 1.364zM304.903 367.82c-1.384 1.384-2.896 2.641-3.749 3.687 1.877-1.576 2.448-2.261 3.749-3.687zM320.685 351.883l-1.279 1.231c1.118-1.446.535-.814-.479.463-1.318 1.341-1.138 1.371-1.225 1.602l-.688.947.971-1.211c2.063-2.058 3.303-3.332 2.7-3.032zM385.203 298.572c-4.76 4.512-6.018 5.65-6.024 5.141-4.482 4.318-3.355 4.08-5.906 6.837 4.929-5.029 6.066-5.928 11.93-11.978zM373.273 310.55l-1.718 1.759a49.583 49.583 0 001.718-1.759zM299.325 367.596l2.487-3.275-1.003 1.112zM392.213 291.822c-.876.844-2.242 2.232-3.008 2.821.012.506 3.881-3.663 3.008-2.821zM369.273 304.639c-.628.312-3.5 3.373-4.769 4.52 1.766-1.699 3.653-2.634 4.769-4.52zM411.226 270.679c-1.551 1.517-4.201 3.82-3.723 2.914-1.756 2.01-3.782 4.948 3.723-2.914zM377.791 296.214l-.75.574-3.006 3.338zM362.663 303.717c-3.26 3.876 6.402-4.917.519 1.489 8.25-7.604-1.044.171 4.854-5.626-3.529 3.32-5.596 4.608-5.373 4.137zM368.035 299.58a75.389 75.389 0 001.648-1.595l-1.648 1.595zM381.971 269.871a33.689 33.689 0 001.695-.146 29.63 29.63 0 00-1.695.146zM386.454 280.651l-4.885 5.811c.816-.97 1.991-2.258 3.278-3.643l1.984-2.122.998-1.064.172-.188.113-.13.22-.254c1.163-1.345 1.877-2.28 1.302-2.165-.678.584-1.28 1.2-1.806 1.813l-.193.229c-.076.089-.077.104-.277.32l-.873.976a29.73 29.73 0 00-1.291 1.557l1.258-1.14zM339.769 261.177l3.268-.258-4.08-.076c1.168.098-.946.577.812.334zM338.167 260.83l.789.014a7.337 7.337 0 00-.789-.014zM394.855 269.556c2.07.045 3.754.027 5.972-.088-.513-.123-5.896-.238-5.972.088zM333.787 259.304l-.065.223c-.021.067-.044.148-.071.241l-.016.074-.083.39c-.06.277-.105.538-.105.538s.072-.29.153-.586c.046-.164.092-.327.125-.45l.271-.879-.209.449zM342.453 235.652l.399-.85 1.13-4.333-.403.864zM321.382 267.23a8.866 8.866 0 002.047 3.213 8.368 8.368 0 002.402 1.687c1.45.633 2.214.578 1.6.327 0 0-.599-.2-1.428-.675a9.38 9.38 0 01-4.256-5.411c-.275-.918-.326-1.552-.325-1.552-.07 1.359.181 2.08.702 3.087a10.73 10.73 0 001.23 1.771c.592.686 1.41 1.512 2.682 2.279 0 0-.382-.169-.919-.498a9.79 9.79 0 01-3.237-3.289c-.324-.55-.498-.939-.498-.939zM341.699 85.475c1.584-.342 9.338-.144 9.744.181-1.042.141-5.246.276-2.605.483l6.135-.84c8.16.523-6.202 1.104-10.232 1.4 8.313.108 10.777-.444 19.62-.44a50.472 50.472 0 01-5.635-.465c-.149-.295 1.835-.377 4.594-.392l12.125.016c-6.692-.257-2.847-.473 2.484-.705a32.489 32.489 0 002.051-.092l1.831-.083-1.352.001c.144-.066-.091-.146-1.007-.256-2.428.043-4.672.044-6.799.022l-3.105-.049-.671-.016-.38-.017-.746-.038c-1.961-.103-3.701-.228-5.292-.232 3.144.961-10.836.222-14.837.518l-4.619.095-1.728.002c-.348-.105.145-.238 2.778-.428-2.198.189-9.531.123-8.854.432l-16.735.014a15.37 15.37 0 01-1.428-.157c-.58.061-.677.11-.601.159l-30.343.025-15.172.013-7.586.006-3.793.003-1.896.002h-.948l-.311-.001-.1-.002h-.005c.001-.04-.001-.002-.014.26l-.107 2.168-.131 2.026a29.53 29.53 0 01-.153 1.704l-.127-6.185-12.229.019c3.598.076 6.709.293 10.418.399-3.263.375-.612.349 1.811.386l.127 5.381c.096-.79.143-1.49.194-2.358.071-.958.125-1.916.164-2.873.007-.17.006-.124.007-.128h.006l.009.001.031.002.175.01.519.017c.381.013.721.03.985.054.529.049.76.125.422.25-.395.035-.817.062-1.26.083l-.641.027-.199.006-.068.002h-.001l-.031.671-.097 1.583-.091 1.383c-.032.424-.073.848-.124 1.271l-.127-4.921a70.463 70.463 0 01-5.708-.124c-.813.305 2.296.574 1.937.939 1.432.059 2.675.074 3.771.057l.126 4.048c.081-.678.138-1.356.171-2.033l.128-2h.044l.176-.002.444-.015 1.015-.045a55.364 55.364 0 001.851-.134c1.174-.104 2.251-.233 3.377-.353 2.251-.24 4.694-.446 8.49-.353-.356.365-3.136.685 2.749.635l-1.495.079c9.423-.409 7.342.826 13.273-.176l-.156.527c4.274-.397 12.591-.4 17.277-.473l-.279.102c13.146-.604 7.38-.128 22.143-.381l-6.794.615c5.093.254 6.241-.415 9.897-.346-.263.102.585.487-2.867.583l17.912-.938c4.276-.395-.866-.385-1.532-.609zM364.361 86.259c.948.028 2.025.04 3.297.02l-3.297-.02zM238.398 84.633l5.122-.006a110.99 110.99 0 00-5.122.006zM384.104 102.432c2.064-5.605-1.096 4.713-.65 3.982l6-18.945c-.29.243.031-1.521-.346-.947l-5.004 15.91z"/><path d="M387.755 84.151c-.905.142-3.328.268-5.944.388l8.57-.002-.928 2.933c.163-.143.517-.913 1.343-3.236-.783-.022-1.792-.05-3.041-.083zM375.82 94.991l-1.273.019-2.001.156zM348.935 94.098c2.353.308 6.815.074 8.308-.004-5.143.01-2.915-.107-8.308.004zM355.291 97.398l-4.958.175.462.06zM200.538 86.716l-2.422.035a64.562 64.562 0 002.422-.035z"/><path d="M243.076 86.204c-11.826-.589 7.748-.494 4.033-1.25l-6.435.252.547-.203-7.848.068c1.61.348 2.82.369 2.47.735-10.477-.14-3.303-.433-10.989-.892l-11.71.069.948-.11c-.986.008-1.422.054-1.761.114l-39.464.236c-7.18.292 3.971.656-1.324 1.195 8.322-.003 20.689.383 21.395-.346-.279.101-.83.302.857.388l4.813-.601-4.589-.19c4.839-.599 20.468-.469 23.294-.099-8.887.206-4.427.925-16.809.536.556.185 2.823.509.035.611 14.506-.216 27.509.113 42.537-.513zM137.02 126.324l-.098-.089c.113.239.164.313.098.089zM135.634 121.656l-2.819-6.524 3.388 10.491.72.612c-.416-.891-1.827-4.498-2.093-5.985l.804 1.406zM129.919 107.437c1.925 5.362 2.394 4.889 1.71 1.848 1.842 4.9.23 2.821 1.913 6.064.37-.241-1.817-6.308-2.339-7.695l-1.284-.217zM159.713 85.826l-1.601.246 3.944.063zM158.112 86.072l-3.916-.065c.271.182.539.358 1.178.482l2.738-.417zM143.923 85.839l-3.98-.056-5.434-.035 9.414.091zM148.4 85.988l-.132-.077-4.345-.072 4.477.149z"/><path d="M154.197 86.007c-.636-.413-1.381-.847-7.042-.731l1.113.635 5.929.096zM319.236 96.776l-4.478.234.474.063 4.474-.234zM293.401 96.398a72.178 72.178 0 00-2.708.227c1.165-.045 2.092-.114 2.708-.227zM274.196 99.221c-5.267-.416 7.265-.55-2.488-.734-.859-.387 3.713-.886 8.305-.693-.365.364-4.475.233-1.651.605 3.05-.421 4.21-.134 3.146-.683 5.132-.342 5.702-.732 9.186-1.09-6.203.242-19.227-.322-27.098.383-4.34.66-1.708 1.561-1.726 2.514.653.223 11.902.329 12.326-.302zM282.482 100.172c2.438.047 3.183.009 4.678-.07-.404-.326-2.709.055-4.678.07zM226.468 92.976c-.465.136-4.875.305-3.927.539l6.686-.172c-1.57-.023-2.123-.188-2.759-.367z"/><path d="M232.158 93.269l-2.932.074c.734.011 1.64-.008 2.932-.074zM226.15 92.892l.318.084c.094-.028.077-.058-.318-.084zM125.304 92.62c-.371-.302 1.448 4.912 2.33 7.437-.635-2.077-1.45-4.93-2.33-7.437zM161.872 204.473l.598 2.571c-.163-.924-.249-1.397-.598-2.571zM180.948 240.973c.072.058.171.23.289.467-.111-.24-.207-.4-.289-.467zM181.237 241.44c.751 1.649 2.108 7.043 3.027 8.846l-.173-.211 1.311 3.482c-1.081-3.311-3.253-10.29-4.165-12.117z"/></g><g fill="#202020"><path d="M238.208 410.254c2.094 2.016 3.666 4.027 2.794 3.353 4.452 3.919 4.238 4.312 5.296 4.338 2.939 2.433 5.454 5.648 2.189 2.802l4.009 3.695.352.324.296.857c.16.465.439.828.724 1.047.371.3.725.422 1.142.474a2.067 2.067 0 01-1.023-.599 2.149 2.149 0 01-.509-1.008l-.141-.657-.622-.656-.718-.759c.223.109.513.321.861.615l.18.152.625 1.257c.174.35.331.667.688.964.322.275.824.46 1.338.408l.318-.032.302.032c.812.085 1.332-.394 1.298-.745-.311.319-.746.49-1.269.451l-.372-.028-.307.025c-.837.07-1.48-.332-1.712-1.148l-.273-.961-.606-.587-.259-.25.341.168.9 1.603.113.053-.038-.072-.8-1.516-.13-.112c-2.061-1.782-5.56-5.406-6.763-6.726.274.133.259-.111 1.75 1.354-10.089-10.154-3.476-1.977-12.018-10.233.54.516 1.186 1.174 2.044 2.117zM230.659 400.606l-4.068-2.993-5.785-6.062c-.253.118-4.717-4.047-1.959-.962.601.542 1.785 1.616 2.68 2.545-1.062-.26-8.077-7.677-6.743-5.53 4.791 4.578 5.422 5.386 8.631 7.943 4.257 4.332 7.292 7.551 9.151 9.703 1.336 1.214 1.761 1.146 3.43 2.717l-1.115-1.084.428-.778c-1.478-1.224-2.695-2.561-4.206-4.047l7.639 6.229c-1.671-2.801-8.815-9.282-11.303-12.238 2.867 3.884-2.941-2.436 3.22 4.557zM235.995 407.968l.172.169-.172-.169zM377.097 79.599c2.085-.016 2.699-.217 3.001-.319l-23.474.021c.735.224 7.496.5 2.979.635 2.015.248 8.151.035 9.042-.269l-1.701.342c5.407-.439 9.102.42 5.576.68l.456-.004 7.489-.844 1.397-.157.685-.077.833-.05 3.159-.151 1.303-.054c.396-.025.733-.026.987.013.525.067.821.146.821.146a7.43 7.43 0 00-1.164-.29l-1.099-.037c-.681-.019-1.259-.023-1.771-.019a42.66 42.66 0 00-2.571.104c-.435.019-.702.066-1.054.104-.346.039-.729.077-1.179.109-.897.065-2.06.112-3.715.117zM284.801 404.981c2.096-2.206 2.303-2.528 1.999-2.343a56.436 56.436 0 00-1.999 2.343zM393.593 81.792s.277.278.626.751c.354.469.753 1.15 1.039 1.879a8.47 8.47 0 01.523 2.07c.066.576.063.961.063.961.065-2.513-1.131-4.609-2.251-5.661zM358.951 86.626c-.01.028-.061.053.063.09l2.106-.27h-.054l-2.115.18zM366.185 186.972l-.43 1.479c.166-.535.305-1.023.43-1.479zM295.363 89.652l10.436-.509c-1.391.24 3.644.167 1.445.448.795-.039 4.523-.134 3.507-.258l-2.129.016c5.503-.7 2.17-.969 11.294-1.503-5.664-.414-8.148-.034-11.148.285l-2.731.097-8.678.98-1.996.444zM384.823 299.342l.043-.119c-.061.086-.062.113-.043.119zM385.03 298.741l-.164.481c.317-.475 1.759-2.07.164-.481zM391.63 80.561c.229.012 1.015.316 1.963 1.231 0 0-.799-.872-1.815-1.439-.999-.603-2.127-.843-2.127-.843a7.303 7.303 0 011.979 1.051zM381.768 80.583l-8.792.102-3.241.363c3.364-.138 7.299-.233 12.033-.465z"/><path d="M370.777 173.861c-5.405 17.391.568-4.513-2.151 3.403-1.437 4.849-1.604 6.667-2.44 9.709 4.051-13.869.635 2.255 4.844-11.692.047 2.189-2.443 10.247-4.12 14.9-2.342 5.127 1.003-4.811.749-6.22-1.661 5.605-1.232 4.661-1.62 7.141-2.927 8.701-4.945 18.354-7.503 23.293-1.866 6.378-1.424 6.06-2.237 9.81.466.946 3.354-9.303 4.646-11.476-.213.467-.631 1.378-.642 1.073l1.883-5.429c-1.891 5.12-.465-.942.362-3.738.626-2.025 1.87-6.051 1.887-5.438l-.821 3.107c1.469-3.869 2.25-8.849 3.945-12.888.225-.168-.2 1.429-.18 1.698 1.004-4.811 2.458-9.295 4.31-16.299l-.579 4.217c.988-5.759 5.169-18.184 8.318-26.714-.422.923-1.053 2.627-.855 1.546 1.448-5.138 3.14-8.829 2.756-6.358 1.004-5.149 6.486-18.776 7.893-25.782l3.187-16.12 2.19-11.083.948-5.133c.114-.623.205-1.112.267-1.445.063-.331.02-.485.034-.489-.239 1.655-.738 3.532-1.186 5.448-.449 1.146-.729 1.558-.969 2.028-.234.436-.396.716-.478.753-.083.037-.087-.168-.008-.705l.182-1.063.38-2.083-.432 2.04c-.093.443-.16.813-.214 1.139l-.244 1.69c-.171 1.11-.476 2.514-1.624 6.175.606-2.965.142-3.91-2.153 3.073-4.952 17.707-6.915 29.861-11.227 46.499-.658.456-4.603 13.341-6.692 19.548.256-2.542 1.583-7.219 3.007-12.059l-3.895 12.043.482 1.881z"/><path d="M382.115 132.692c-.181.425-.348.87-.517 1.328.117-.235.274-.63.517-1.328zM374.667 158.476c.002-.066-.019-.049-.031-.077l-.448 1.537.479-1.46zM393.654 85.457c-.424-1.178-.91-2.03-1.853-2.874.564.529 1.134 1.342 1.47 2.214.33.822.417 1.237.383.66zM392.088 81.226s.177.082.346.179c.174.092.338.197.338.197a7.151 7.151 0 00-1.142-1.041c-.213-.004-.107.134.458.665zM345.515 238.854l-.427 1.696c.311-1.005.406-1.45.427-1.696zM363.85 192.946c1.87-6.051-.467-.942 2.24-9.483l-.838 2.493c1.646-6.222 5.199-16.947 7.485-24.235.017.909 1.738-4.309 1.898-3.32 1.478-5.009 2.945-9.967 3.315-12.672 1.123-3.037 2.219-7.845 3.646-11.707-.786 1.572.889-5.86-1.819 3.781.209-.781-.004-.317.201-1.09-2.313 6.03-2.479 8.69-4.15 13.986-1.261 3.083 1.228-5.308.178-2.354-1.858 6.687-6.892 20.646-5.785 20.514-1.459 4.833-1.883 5.429-2.515 6.808-1.384 7.937-9.403 28.101-8.063 28.45.829-2.795 2.293-7.313 3.305-11.479l.902.308zM391.095 97.001l-.386 1.17.386-1.17z"/><path d="M324.751 76.095l2.648-.904c15.081-.219 20.533.034 33.72-.005 1.007.124-.593.203-1.403.243l15.89-.052 4.021-.023 1.923-.02.933-.013c.101-.01.447.018.694.03l.793.046 5.954.322c.491-.015.844.149 1.235.267.381.13.751.274 1.104.436.704.323 1.35.694 1.925 1.094a11.343 11.343 0 013.09 3.573c.888 1.589 1.361 3.478 1.392 5.042.016.392.003.762-.02 1.106l-.29 1.023a32.086 32.086 0 01-.439 1.413c-.214.611-.253.493-.019-.726l-.838 3.829-.232 1.015-.12.513c-.039.161-.087.379-.111.443l-.376 1.174c-.11.08-.102-.103-.029-.423l.148-.569.097-.333.144-.607c.392-1.648.816-3.403.703-3.482-.556 2.151-.822 2.965-.847 3.487.313-1.838-.187-.955-.243-1.692-.029-.362.05-1.11.385-2.733l.302-1.389c.16-.537.181-1.08.141-1.704a10.055 10.055 0 00-1.302-4.478c-.616-1.362-.658-1.46-.194-.956.439.511 1.202 1.761 1.581 3.218.2.723.313 1.481.354 2.171.022.346.025.673.021.974-.042.313-.122.611-.164.864-.189 1.014-.178 1.431.271.46.146-.685.39-1.31.336-1.771a9.17 9.17 0 00-.097-1.22c-.105-.674-.245-1.08-.351-1.335-.227-.507-.318-.422-.432-.614-.49-1.584-1.192-2.643-1.732-3.376-.555-.731-.978-1.15-1.227-1.428-.513-.542-.357-.516-.142-.48-.553-.359-1.405-.933-2.513-1.4-.569-.212-1.126-.487-1.847-.545l-2.27-.148c-1.545-.101-3.127-.2-4.558-.263-.967.009-1.662.072-2.26.167-8.44.066.459-.629-5.054-.618l-3.177.848-9.166-.159c-13.269.301 1.897 1.465-13.269 1.947 1.993-.443-4.09-1.185-11.149-1.36 4.224-.032 12.03-.586 17.482-.335-7.687-.663 10.579-.082 6.59-.841-3.799.36-10.132.41-15.071.217l1.619-.079c-5.253-.089-9.229.799-16.478.461-3.603.028-2.928-.211-2.294-.41-3.047.129-5.772.296-5.782.108zm7.848-.178l4.819.083c-1.144-.14-2.94-.135-4.819-.083zM182.925 353.026l.986 1.084c-.198-.254-.578-.658-.986-1.084zM148.565 86.209l-2.791-.028a82.84 82.84 0 002.791.028zM135.885 114.707l1.421 3.827a48.741 48.741 0 00-1.421-3.827zM159.432 329.451l-.092-.101-.486-.423.578.524zM171.993 235.069c.12.614.269 1.298.509 2.222.046-.135-.154-.962-.509-2.222zM135.622 114.003l.06.24.203.464-.263-.704zM176.16 88.681l1.787-.084c-.843.017-1.359.048-1.787.084zM172.225 86.279a43.645 43.645 0 001.736-.084l-1.736.084zM268.745 87.949l3.758-.123c-1.847.014-2.949.062-3.758.123zM182.17 86.833c.219-.039.438-.077.583-.115-.519.026-.766.076-.583.115zM198.023 371.698l-.163-.159-.137.003.3.156zM205.357 377.286l2.384 2.285a59.872 59.872 0 00-2.384-2.285zM142.586 262.162c-.995-.122-3.33-.27-2.24-.408-1.904.175-1.777.605 2.24.408zM181.319 362.496c.504.343 1.093.807 1.683 1.274-1.072-.895-2.007-1.686-1.683-1.274zM183.001 363.77l1.576 1.306a56.844 56.844 0 00-1.576-1.306zM165.863 255.128c.179.058.44.105.765.121-.178-.115-.435-.14-.765-.121zM209.531 381.553c.562.276 11.022 10.116 2.558 1.505.774-.115 5.683 5.272 8.069 7.438-1.549-1.758 1.108.536.765-.124-1.183-1.075-2.653-2.29-4.487-4.188-.655-1.062 2.315 1.633 4.45 3.92-2.489-2.959 3.809 3.104.133-.932-8.398-8.085-14.385-13.748-20.83-18.895 4.805 4.591 10.193 9.715 13.868 13.746l-2.004-1.234c-4.017-4.693-6.958-7.129-11.206-11.448l9.418 9.826c4.187 4.827 1.098 1.886-2.524-1.598.869.88 1.636 1.694 1.79 1.984zM199.673 378.445l.15.172c.155.128.339.294.445.367l-.595-.539zM268.05 76.94l1.169-.206c-.976.093-1.277.157-1.169.206zM195.796 370.843l.006.007c-.068-.062-.084-.078-.006-.007zM238.97 76.875c.042-.014.083-.03.155-.047-.104.017-.104.033-.155.047zM231.196 88.605c.054.025.069.049.196.074.621-.031.32-.056-.196-.074zM238.948 76.926c0-.017-.019-.033.022-.051-.022.018-.073.035-.022.051zM122.76 106.69s-.046-.454-.173-1.152c-.131-.244-.104.033.173 1.152zM124.438 79.886l.665.036-.665-.036zM149.189 264.613c1.381.008 2.417-.006 3.292-.029a67.593 67.593 0 00-3.292.029zM239.125 76.828c.292-.058.707-.117 1.391-.19-.754.078-1.153.138-1.391.19zM138.251 146.427l-.316-.8.128.495.188.305zM142.275 160.434c-.209-.456-.339-.653-.477-.902 1.788 4.887 4.442 14.066 5.336 14.97-.547-1.678-2.989-10.499-2.195-9.116-1.234-3.411-2.468-8.641-3.148-10.472 1.498 5.767-.271.761-1.672-3.01-.943-3.533.652.515-.197-2.517l-2.618-8.038 2.154 7.042-1.207-1.964.277.7c4.015 11.796-.456 1.255 3.747 13.307z"/><path d="M141.798 159.531a33.197 33.197 0 00-.734-1.861c.364 1.118.556 1.536.734 1.861zM156.315 208.32l.751 2.075-.751-2.075zM363.487 80.957c-.219-.164-7.477-.5-7.347-.072l6.504.133.843-.061zM91.247 262.298a5.025 5.025 0 011.206-1.859c.083-.133.178-.244.239-.343-.221.114-.588.441-.874.877-.294.43-.49.959-.571 1.325zM145.809 167.463c-.465-1.249-.708-1.793-.87-2.077.293.811.586 1.552.87 2.077zM89.786 262.236a6.04 6.04 0 00-.346 1.672c-.035.538-.001.965-.051 1.061.313 1.076.893 1.84 1.665 2.504.743.689 1.489 1.363 2.314 2.158-.898-.909-1.936-1.882-2.853-2.978a5.065 5.065 0 01-.729-4.417zM93.504 269.76a72.279 72.279 0 00-.135-.129l.135.129z"/><path d="M367.805 81.138l1.93-.09-1.004.114 4.993.129 2.056-.069a3.206 3.206 0 00-.729.108 1351 1351 0 001.6.049c.994-.111 2.358-.214 3.89-.312.782-.046 1.535-.101 2.435-.135l2.843-.077c.955.003 1.938-.119 2.804.074a6.22 6.22 0 012.332.993c1.329.912 2.001 2.136 2.317 2.875a6.312 6.312 0 01.346 3.315c-.283 1.155-.605 2.344-.913 3.505l-.461 1.705-.404 1.336-.743 2.342c.411-1.288.861-2.757 1.148-3.853.316-1.29.44-2.006.144-1.416-.526 1.63-.951 2.578-1.398 3.694-.442 1.08-.878 2.135-1.324 3.316-.894 2.362-1.83 5.23-2.953 9.813l1.661-5.267-2.85 12.122c-1.69 4.027 1.423-6.05 1.617-7.796-2.474 9.346-6.096 16.623-6.665 21.139-.656.454-1.753 1.216-3.623 7.27 1.913-4.186-.808 3.729.894.337-.396 2.171-2.305 6.684-2.067 7.142l-.013-.626c-4.009 10.079-3.926 13.821-4.946 18.354-3.728 12.409-5.829 17.984-8.946 28.08-.437.297-2.164 2.767-3.414 6.818-.174 2.012-2.87 11.188-2.624 12.29 2.517-7.152 1.421-6.054 2.667-10.418 1.709-3.419.664-.148 2.563-4.957-1.479 3.898-5.394 18.022-7.304 22.2l.412-1.558c-2.524 6.834-4.281 7.736-7.14 19.55l-1.418 5.619c.03-.283-.023-.333-.026-.49-1.46 4.504-2.148 6.091-2.807 7.818-.674 1.775-1.261 3.513-2.362 7.827.168-.658-.042-.202.134-.884a59.668 59.668 0 00-1.525 4.584 134.53 134.53 0 005.527-.259c1.714-.108 3.233-.217 4.557-.265 1.365.236 1.209.354.487.453-.736.1-1.827.184-2.696.355 2.375.045 5.178.028 7.78-.03 2.637-.06 5.237-.162 7.713-.288a344.39 344.39 0 0012.665-.887l6.758.277c-4.008.195-8.906.693-7.684.979 3.717-.094 2.997-.318 8.254-.227-.897.303-3.103.584-5.573.965 10.87.506 2.43-1.072 10.037-.145 3.415.006 5.398-.436 5.772-.801l6.188.478c.344-.232 2.425-.355 5.046-.429 2.638-.07 5.702-.118 8.492-.081.359-.087-.693-.223-2.151-.333-.76-.063-1.478-.084-2.17-.09s-1.339.01-1.813.055c.203-.179 1.573-.327 3.456-.396 2.07-.021 4.63.031 6.611.103.083.083.375.156.825.219.453.072 1.075.074 1.715.27 1.309.34 3.045 1.45 3.873 3.318.881 1.827.641 4.191-.436 5.688-1.166 1.448-2.403 2.701-3.215 3.549-1.229 1.126-1.768 1.459-1.266.552l-17.939 18.474c-5.996 6.159-11.522 11.865-14.969 15.599-2.559 2.178-7.394 6.993-4.825 3.777-8.76 8.755-12.568 13.979-21.449 22.482-.806.633 3.923-3.936 3.384-3.856-5.405 5.958-10.629 10.045-19.26 19.045 1.471-1.496 1.761-2.07 1.896-2.349.269-.04-3.374 3.849-5.544 6.24-1.341 1.222 1.624-1.79.817-1.158-17.363 16.693-29.399 30.604-46.366 47.51 4.846-4.828 6.217-7.112 6.081-7.352l-4.746 4.73c-1.598 2.054-5.156 5.61-7.961 8.756-.45.28-1.99 1.635-.622.051-9.269 8.396-13.32 14.708-23.592 24.837l.468-.818a6.839 6.839 0 01-.654 1.619c-.15.262-.318.516-.504.763l-.338.404-.237.245.21-.258.304-.405a7.16 7.16 0 00.452-.775c.263-.531.447-1.088.618-1.631-.156.235-.313.471-.455.72l11.204-12.825-3.758 3.116 5.688-6.526c-3.899 3.395-6.487 7.151-7.273 7.243.674-.868 2.562-2.693 2.433-2.939-3.637 3.366-3.654 3.9-6.22 6.6 6.231-7.641 19.842-21.228 26.987-28.72 1.097-1.206-.815 1.156-.947 1.432 2.963-3.01 4.975-4.582 8.611-8.464 2.037-2.632-2 1.563-3.884 3.384-.004-.515.944-1.431 2.968-3.533.794-.103 11.449-11.204 14.53-13.442 10.916-11.133-2.657.869 8.255-9.743l3.61-2.819c5.942-6.554 13.752-14.905 20.907-21.891l-1.478 1.502c-.823 1.161.921-.374 1.733-1.014 5.512-5.174 9.833-10.454 13.466-13.296 5.674-6.514 15.522-16.984 22.272-24.168 2.4-1.359-8.646 9.53-11.221 12.755l6.341-6.345c-3.914 3.928-5.264 5.674-7.317 8.32 5.654-5.462 7.027-7.745 12.164-13.146-.269.552.522-.065 2.957-2.491l.344-1.036c.073-.017.368-.26 1.141-.987l9.165-9.587c-2.138 1.841-2.535 1.637-4.961 4.054 1.066-.663-.947 1.432-3.377 3.851 1.897-2.35-2.555 2.173-2.689 1.935 4.869-4.85 10.792-10.867 13.884-14.147l1.353-.717c4.712-4.55 9.425-9.618 12.658-12.666l-.821 1.159 2.14-2.089 1.464-1.457 1.891-1.913a3.349 3.349 0 00.804-2.449 3.46 3.46 0 00-1.106-2.267c-.62-.578-1.432-.861-2.214-.889l-3.806.373-.905.091c-.11.015-.375.03-.616.045l-.72.045-2.868.179c-3.798.238-7.437.48-10.3.75-3.064.581-20.565-.73-28.467.088-.532-.063 5.427-.438 8.123-.656-5.256-.09-9.435.633-11.082.021 11.795.206-.634-.487 4.68-.662-5.522.011-11.346.122-14.055.341 8.938-.006-3.175.846 5.874.578-3.13.23-6.771.398-10.58.496l-4.223.061-4.505.033-8.915-.019 1.347-4.079c.296-.061.928-1.644 2.437-6.039l.729-3.56c.933-2.826.172-.052-.322 1.908-.5 1.977-.731 3.137 1.061-2.286l1.067-3.941c.336-1.181.716-2.439 1.12-3.739l2.563-7.99c1.694-5.262 3.149-10.001 3.108-11.875 2.322-5.738-3.09 11.341.282 2.652-1.22 5.29-3.955 12.253-3.918 14.136 1.439-5.107 1.072-1.69 2.113-4.95l1.433-5.75-.417 1.24c2.457-9.634 7.475-24.542 11.217-36.653 2.666-10.419 4.063-17.73 8.021-29.986-.81 3.732 3.563-10.091 1.735-2.166 2.103-5.585 3.525-11.306 3.31-11.497-1.672 4.97-.639 1.732-2.098 5.902.597-2.938 2.688-9.484 3.741-12.112-.418 1.24-.209.785-.2 1.09 2.099-5.902.604-2.956 1.845-7.309.861-1.232 3.136-9.485 4.605-13.353l1.203-5.904c-.595 3.265 1.883-5.426 2.536-6.208 1.018-4.185 1.611-7.775 3.697-13.977-.304 1.321.223-.078.881-1.804.646-1.688 1.487-3.91 1.586-3.516.253-.631.479-1.264.662-1.869a2.167 2.167 0 00-.26-1.742 2.281 2.281 0 00-1.364-.977c-.551-.159-1.124-.026-1.643.031l-.763.098c-.269.031-.363.062-1.079.089-1.146.056-2.301.101-3.479.129-2.356.055-4.805.04-7.458-.113.33-.1 2.472-.38-.63-.486-2.443.12-6.721.07-9.334.117l.082-.012-.136.012c-1.28.023-2.085.076-2.116.18-4.474.418-6.78.845-15.585 1.2.646.488 8.079.297 11.298.14l2.782-.482c2.658.736 7.939-.129 9.964.118-5.281.864-20.492.655-29.616 1.188 5.563.678 17.666.783 28.226.698l-4.65-.292 5.525-.01-5.349-.518c5.234.09 9.758-.044 14.488-.016-5.538.011-7.695-.662-4.563-.556 6.172.478 6.432-.313 11.149-.285-2.627-.044-6.042-.052-3.84-.332l3.194.178.672.033.209.029.384.048c.479.067.897.029 1.246.251.341.2.596.554.631 1 .065.455-.256.941-.556 1.39.227-.042.297.091.27.362.043-.042-.194.757-.366 1.325-.193.623-.406 1.305-.625 2.005-.885 2.795-1.874 5.86-1.748 6.565l1.252-3.721-2.05 8.085c-2.955 7.123 1.413-6.688-2.569 4.313-3.34 10.258-2.441 10.25-4.946 18.354.386-2.81 2.026-9.346 4.108-15.864l-1.475 3.879c.396-2.174 3.315-11.18 4.771-15.674-1.833 7.608 1.267-3.43 2.754-6.685-.248-.763-1.693 4.036-.26-1.718-1.669 5.287-1.877 6.072-4.178 12.741 2.406-7.234 3.058-10.623 3.656-13.774.062-.272.021-.224.005-.25l-.057-.051a.606.606 0 00-.116-.074.478.478 0 00-.21-.052c-.136-.005-.154.068-.099-.04.101-.094.312-.2.368-.411.073-.214-.083-.375-.1-.489l-.313.051-3.069.068c-2.125.05-4.191.107-5.395.166l2.18.673c-7.753.292-10.446-1.134-19.393-.438-1.163.403 7.869.135 6.26.213-12.241.426-16.652-.659-27.522-1.164-.614.203-.487.629-4.289.986 1.194-.404-1.619-.611 2.657-.908-3.634-.17-7.939.127-11.146.285 7.566.236-3.095.582-4.489.824-3.919-.067 1.194-.403 3.605-.521-3.146-.108-6.885-.703-8.671-.097-.124-.426 8.794-1.122 14.627-1.233l-3.932-.067c2.709-.218 3.216-.157 7.119-.091-3.821-.329-3.444-.693-2.554-.997.5.062-.279.101.199.162 3.143.108 5.554-.009 4.825-.235 2.826-.572-4.359-.356-6.488-.641l-4.797.115-16.329 1.84c-6.977.215-10.112-.224-15.353-.5l-1.438.492c-6.07-.05-11.799-.204-7.908-.827.219.164 1.021.125 2.338.148.175-.066.479-.114.862-.152.126-.029.196-.058.301-.086l-10.934.282c11.038-.715.551-.892 2.397-1.763l-11.148.286c6.758.275.124.426-2.274.544-.389-.287-3.402-.236-6.627-.158l-.126-3.267c-.132 1.041-.159 1.948-.255 3.253a.144.144 0 01-.026.001l-.131.001-.314.007-.854.021-1.667.037c-1.081.021-2.08.03-2.89.016l.288-.101c-3.621-.17-9.967-.122-14.482.011.206.164-5.585.965-8.367 1.447 7.747.184 3.149.38 3.771.684-.802-.027-2.243-.033-2.411.029-1.109.139 1.505.186 1.724.348 8.234-.229 16.706-.293 20.064-.977-2.528-.31-4.309.296-7.138.089 1.69-.19 3.583-.287 5.709-.333l3.367-.038 1.822-.001.946.002.361.003.138.005.02.001h.004-.001c0-.025-.004.061.002-.075l.029-.549.136-2.115a28.37 28.37 0 01.157-1.766l.126 4.525 3.367.01 2.243.41 6.884-.224c-2.873.217-1.144.646-8.367.729.923.387 7.164-.089 11.587.04l2.262-.545c-.871.303 8.596.36 1.869.775l-10.942.447 3.041.372-9.251.106 2.183-.282c-2.093.054-3.684.07-4.875.062l-.127-6.426c-.05.422-.092.844-.124 1.265l-.09 1.361c-.077 1.055-.12 2.046-.171 3.135l-.033.642h-.006l-.03-.002-.161-.008-.523-.013a398.64 398.64 0 00-.996-.039 18.515 18.515 0 01-1.375-.119c-.706-.093-1.073-.206-1.607-.3-1.067-.188-2.799-.299-9.226-.023-4.683.66-9.717.73-18.886.57 6.634-.147.681-.465 3.178-.847-6.767-.275-9.052.269-12.562.525-1.724-.348-2.95-.633 3.095-.582.757-.729-7.952.126-8.503-.625-20.026.022-16.047 2.426-39.457 1.487l.878-.303c-14.866.377-23.442.016-37.208.254l-1.693-.121-.82-.058-.433-.032-.048-.033a2.504 2.504 0 00-.249-.142c-.189-.094-.442-.21-.644-.214a1.008 1.008 0 00-.333.028c.049-.09.126-.225.242-.338.114-.116.259-.191.395-.298.26-.206.536-.442.046-.628.22.097.414.178.593.247.665.068 1.341.123 2.018.168 1.354.09 2.726.143 4.11.184 2.768.081 5.586.118 8.427.327.58-.202-1.733-.349-2.74-.474 3.428.007 5.148.356 9.676.221-.219-.161-5.158-.354-1.436-.449l6.159.479c8.241-.229 4.059-1.148 13.737-.928-1.799.428-5.475 1.047-9.223 1.149 4.423.093-5.896.259-1.86.515 6.372-.634 9.448-.132 17.92-.529-.995.088-1.258.212-3.343.251l12.293.268c-3.042-.371 10.154-.407 9.01-.958-13.101-.229-9.251.104-24.18-.208 4.226-.125 9.675-.686 12.229-1.201.13.021.345.039.805.049 2.281-.545-.044-.691 0-1.645-6.814.678-11.371.12-19.408.51-1.511.522 4.664.666 8.659.531l-7.081.346 1.394-.24-17.974-.175c3.406-.028 4.563-.331 6.34-.559-2.319-.021-4.616-.158-7.059-.31.513.498.19.85-2.072.84-5.782-.06-10.28-.201-13.866-.398l-2.524-.159-1.292-.177c-.833-.099-1.645-.335-2.394-.262-.26.092-.536.239-.737.387.372-.035.301.147.069.507-.228.358-.583.984-.624 1.773-.023.389.03.806.169 1.196.148.387.35.748.512 1.087a24.197 24.197 0 00.589 1.101c.04.075.058.078.125.236l.317.68c-.556-.01 1.501 5.776 2.252 9.034 1.114 1.508 1.195-1 .439-5.019-1.439-3.622-1.925-4.692-2.231-5.099-.23-.167-.411-.083-1.064-.844l-.356-.858c-.214-.521-.256-1.346.109-2.026.342-.693 1.043-1.131 1.601-1.237.561-.087.955-.101.955-.101s-.317.12-.589.243c-.278.12-.497.336-.497.336.36-.086.723-.056 1.065-.052.344.004.676 0 .998-.011l3.174-.087c2.229-.054 3.617-.057 3.387.258-1.641.209-3.875.25-6.006.292-.43.021-.855.042-1.232.083-.375.036-.709.098-.908.312 0 0 .399-.069.785.013l.739.115c-.558.161-.861.169-1.128.231-.26.053-.465.063-.693.099-.221.041-.479.112-.702.407-.213.28-.375.878.041 1.629.13-.49.175-.388.254-.073.045.162.106.395.202.656.114.319.14.282.599 1.431a12.004 12.004 0 00-.147-.662c-.022-.098-.086-.324-.078-.321a12.079 12.079 0 01-.021-.13 7.208 7.208 0 00-.14-.589c-.052-.212-.139-.43-.175-.662a1.335 1.335 0 01.081-.678c.165-.42.539-.651.805-.663.277-.015.419.121.45.381-.146.179-.413.348-.606.662-.225.318-.17.716-.127 1.19l.043.373.006.048.049.182.101.369.204.736c.274.978.557 1.943.85 2.872.585 1.857 1.21 3.569 1.885 4.951l-.188-.252c2.604 8.594 4.052 11.444 5.38 14.55.875 3.731 2.865 8.634 4.149 12.571l-.283-.017 1.872 5.535c-1.3-2.506-2.059-6.53-3.643-11.292l-.279.743c-1.194-5.69-3.205-9.101-4.965-13.249 2.38 6.095 5.462 17.612 6.84 18.784l.75 4 .755 1.788c.556 2.981-.929.229-2.8-5.301-.188-1.004-.283-1.505-.093-1.244-1.028-2.516-2.143-4.771-4.018-11.053l1.305 3.255c-2.435-7.79-4.859-14.805-6.164-17.323 3.369 11.293 6.831 22.35 10.198 32.888 2.044 2.775 3.808 6.277 5.293 7.551 2.426 7.018 5.609 16.582 7.2 22.841l-.373-.503c.851 3.031 1.78 5.777 2.623 8.046.748 3.25-1.207-2.003-.646.249l3.545 10.03c-.644-.484-3.351-9.011-4.667-13.051.28.752.844 2.271.746 1.757-1.312-4.769-4.854-13.304-4.864-15.568-.84-2.26 1.954 4.512-.478-3.269-1.408-5.28-2.523-6.792-2.889-7.274-.279-.004 2.246 8.275 1.034 5.509 1.316 4.04 2.153 5.549 3.553 10.805-1.304-4.003-3.545-9.292-3.832-11.554-2.988-7.788-3.809-6.274-2.687-2.512.087-1.008 5.05 14.333 2.23 3.773 1.96 4.523 4.673 13.063 6.911 19.083l-.184-.248 2.528 7.554c-.471-1.027-1.312-3.287-1.586-3.283l4.011 10.301c-2.332-5.775.85 3.769 1.504 6.526.743 1.004 2.328 5.022 1.298 1.011-1.126-4.519-1.027-2.513-2.335-6.532l2.418 5.512.096.508 1.587 3.275c2.43 7.781-2.233-3.027 1.412 6.774l.267-1.51c3.557 11.559 7.492 26.604 10.389 34.649-1.098-2.125-2.032-2.918-1.42.288-.998-3.549-3.261-10.599-4.923-15.616-.188-1.007 2.798 6.039 4.388 11.558.269-3.003-5.038-13.552-4.117-14.552-4.031-14.067-4.383-10.057-7.478-22.101-.554-.004-1.313-3.287-1.953-3.768.292 3.763 5.048 15.813 7.198 23.583-.275-.741-.83-2.229-1.019-2.496 1.595 5.537 2.426 7.77 3.829 11.545l-.094-.502c2.617 6.545.94 4.265 1.971 8.279.56 1.504 2.154 7.035 2.243 6.036l1.789 7.293.452-.522a59.18 59.18 0 01.767 2.535l.827 2.883c.53 1.83 1.06 3.523 2.169 6.428l.709.494-4.196-13.83c.886 2.509 1.119 2.824 1.364 3.205a4.127 4.127 0 01.315.575l.219.562c.329.872.813 2.26 1.601 4.654-1.99-5.317-1.442-3.35-.483-.123.967 3.255 2.383 7.885 2.227 8.203.532 1.469 1.063 2.938 1.51 4.343l-2.371.172 1.64-.141c-2.936-.136-4.485-.087-6.19-.013-1.693.074-3.539.174-6.82.14 5.146.194 9.42.422 14.566.445a217.149 217.149 0 00-2.862-8.504 612.87 612.87 0 013.026 8.625c-6.327.194-14.237.354-16.797.366l-2.74.055-1.538.009a83.16 83.16 0 01-2.892-.079c-1.884-.08-3.732-.195-5.849-.225 4.062-.105 3.351-.505 3.659-.831.154-.162.563-.307 1.951-.387.694-.04 1.632-.063 2.906-.066 1.726.018 3.906.038 6.664.065-.441.102-2.571.078-3.388.016 1.36.261 4.11.313 7.195.265 3.089-.048 6.468-.197 9.253-.341l-1.671-4.532c-.031.519-.474-.484-.622-.627-.15-.153-.007.549 1.068 4.263-.18-.005-.517-.015-.875-.023 1.677.123.052.34-3.369.484a178.81 178.81 0 01-6.149.145l-3.531-.006c-.593-.01-1.187-.02-1.776-.028l-.86-.022-.562-.027.524-.414c.129-.104.368-.207.493-.285l.231-.129-8.868-.098.812-.039c-3.26-.535-9.248.103-15.217-.211-4.309.295-20.84.061-13.728.928-5.357-.52-10.059.143-15.904.254l7.287.338c-8.615.594-6.134.21-13.028 1.154-.697-.227-2.234-.414-.833-.652l-4.313-.048a1.834 1.834 0 00-1.512.881 1.797 1.797 0 00-.069 1.726c.127.271.34.483.552.68l.619.587c.406.38.797.733 1.158 1.043l2.524 2.324a63.372 63.372 0 002.254 1.952c5.743 5.794 5.958 7.39 14.323 15.213 1.787 1.622-.781-1.876 4.41 3.65.317.404-5.594-4.725.42 1.197 4.701 3.799 9.733 10.231 15.654 15.37 2.756 3.081 7.883 8.085 6.471 7.387-4.542-4.705-11.161-11.175-12.329-12 .854.423-3.081-3.497.493-.256-6.72-7.26-4.757-4.315-10.844-10.771-.575-.289 2.829 3.619 4.301 4.835-.458.517-12.6-12.128-7.61-5.97 6.659 6.742 9.664 7.716 14.958 14.036-2.625-2.031-6.014-5.923-9.482-8.368l4.576 4.968 3.815 3.111-.278-.135c7.981 8.874 8.298 7.295 16.083 14.591-4.03-4.707 1.856.165-1.224-3.328 5.105 4.98 8.743 8.748 8.29 9.27-9.832-9.036-1.051-.02-10.259-8.255 1.257 1.606-2.79-1.363 2.354 3.888 6.204 5.509-1.346-2.157 4.655 3.521.302.389.616.792.341.659 2.939 2.433 3.042 3.226 6.573 6.196l-.868-.674c3.712 4.305 4.719 4.05 7.847 7.822-1.018-1.742 2.613 2.02 4.979 3.933-3.36-3.634-4.734-6.046-11.663-12.917-1.12-.548-.774.115-3.747-2.58l4.52 4.45c-1.015-.921-1.825-1.584-2.77-2.414l-4.16-4.456c5.667 5.257 3.468 2.446 6.086 4.47 4.873 5.123 4.203 4.046 7.253 7.282-.736.104 8.92 10.355 14.405 16.38l-2.654-2.687c-4.446-3.915 2.526 3.227 2.565 3.496l3.257 2.837c-.603-.544-1.494-1.239-.254.119 4.203 4.047 4.379 3.391 8.576 7.43.078.54-3.754-2.59-1.315.092.681 1.085 2.956 4.433 8.631 9.699.476.299 1.944 1.667 3.626 3.273-.241-.216-.537-.493-.656-.58l3.382 3.886c-3.491-2.702-6.076-6.447-9.583-9.163l-.639.11c-2.423-2.421-5.874-5.547-7.581-6.865 3.628 3.756 4.504 4.435 8.711 8.486.341.814-2.743-1.917-3.188-2.311l.83.402c-4.614-5.234-7.721-7.002-13.781-13.201-.91-.94-.318-.404-.041-.269-5.326-4.6-9.696-9.966-14.998-14.31l1.77 1.375-17.006-15.235-.197.095c.625.8-1.779-1.613-3.012-2.966l.009.005-9.303-8.373c.719.899 1.678 2.01 2.845 3.218 1.177.835 6.933 6.871 6.513 5.674 2.489 2.959 7.215 7.011 9.068 9.159-3.395-3.896 2.905 2.171 3.759 2.595.979 1.471 5.42 5.383 4.612 5.235.633.806-1.571-2.009-3.319-3.361-4.125-3.51 6.719 7.261 1.67 2.798 6.28 5.816 14.15 13.888 20.694 19.822l-3.358-3.627c2.725 2.821 9.363 9.313 9.694 9.962-2.1-2.022-4.504-4.435-7.207-7.005-.5.245 6.338 6.333 6.401 6.856l8.274 7.04-3.333-3.374c2.339 1.886 9.078 9.171 14.223 14.421-3.492-2.471-7.854-7.827-13.527-13.091-4.166-3.778 1.96 2.945-1.921-.691.856 1.093 3.323 3.532 4.661 4.613l1.391 1.576c-3.818-2.89-11.232-10.512-16.636-15.117.489.389.924.72 1.117.805-3.673-4.033-7.594-7.939-11.474-11.573 1.84 2.133 2.726 2.82 3.916 3.902.026.256-3.57-3.241-5.039-4.456 3.359 3.63.378.926 2.513 3.213-2.387-2.165-4.198-4.041-6.923-6.863-1.263-1.613 1.431.948 1.367.425-2.995-2.718-3.751-4.573-8.196-8.489 5.463 5.657-1.965-.965-4.035-2.726l.916.948c-2.032-1.494-3.54-2.979-4.512-4.445 2.387 2.166 4.512 4.445 4.139 3.523-1.515-1.491-3.025-2.979-4.811-4.599l1.746 1.35-7.529-7.413c-1.424-.941-3.741-2.576-5.133-3.255-1.573-2.012-4.251-4.325-6.036-5.94l.892.689c-3.089-3.502-10.594-10.662-11.426-11.065-2.164-2.546 18.004 15.281 1.163-1.163-6.329-6.324-4.623-3.259-8.47-6.634 0 0 .273.134-.04-.27-2.72-2.818-3.257-2.837-5.643-5.003 1.557 1.764 3.958 4.175 4.832 4.851-1.119-.548-5.741-5.791-8.087-7.688 3.193 2.313-5.185-5.52-2.821-3.608-2.612-2.895-5.477-5.727-8.09-8.156a145.384 145.384 0 00-3.67-3.3l-1.576-1.344-.359-.298-.173-.144c-.061-.053-.15-.155-.223-.229l-.873-.908a70.477 70.477 0 00-3.484-4.618l-1.842-2.199-.972-1.13c-.215-.363-.35-.741-.498-1.155a9.41 9.41 0 010-5.985c.71-2.188 2.479-4.469 5.016-5.542-.749.335-1.78.995-2.705 1.98-.937.969-1.706 2.258-2.173 3.451-.227.824-.249 1.275-.239 1.429.015.155.067.018.169-.297.185-.632.68-1.975 1.44-3.021.732-1.069 1.642-1.792 1.835-1.89.1-.05.024.049-.29.377-.3.339-.855.923-1.466 2.019.544-.921.551-.956.197-.58-.337.385-.919 1.299-1.233 2.376-.609 1.877-.423 3.813-.027 4.957.392 1.162.833 1.642.759 1.265 0 0-.196-.463-.359-1.241a8.396 8.396 0 01-.072-2.983 8.307 8.307 0 011.02-2.901c.425-.732.799-1.154.799-1.154s-.445.638-.757 1.353c-.323.712-.49 1.477-.49 1.477s.218-.827.892-1.901c.659-1.072 1.9-2.295 3.372-2.931a7.425 7.425 0 011.102-.388c.189-.042.351-.096.56-.111l.645-.016 2.294-.053 2.207-.043c.342-.113-1.011-.147-1.725-.157l6.229-.315c.582-.043.889-.017 1.309-.019l1.196.008 2.406.01 9.667-.028c6.401-.041 12.613-.105 18.002-.065 1.012-.699 7.646-.848 15.115-.931l11.232-.133 1.313-.027.556-.016.288-.017 1.058-.082c.651-.063 1.181-.145 1.542-.252-.583.401-1.076 1.108-.062 1.399-.549.029-1.35.185-2.463.319l-.429.049-.707.045-1.492.072a49.722 49.722 0 01-3.197.021c-.704-.225-6.143-.479-2.643-.735-12.172.159 1.647.613-1.945 1.133 2.226-.022 4.299-.063 6.249-.118 1.885-.054 4.038-.122 4.898-.198a111.41 111.41 0 005.522-.508c-.789-1.895-1.466-3.474-2.056-4.962l.136-.118-.219-.53-.221-.531-.172-.448-.209-.563-1.121-3.017c1.5 5.035.667 5.027-1.116-1.51l.286.773c-.851-3.782-3.654-11.322-5.429-17.087l-1.674-3.76c-1.777-5.775-1.043-6.28-1.151-8.307-2.807-9.044-5.127-14.045-7.557-20.331-.565-3.012-4.771-16.558-2.068-9.531-2.896-8.042-4.273-5.797-7.652-20.095l1.492 3.516c-4.307-13.328-11.029-32.153-12.621-38.418 2.792 4.536-4.041-17.072-3.589-19.828-.065.749-1.749-4.238-2.127-4.923-.207-1.144-.651-3.018-1.516-4.88 1.41 5.283-2.412-3.263 1.232 6.536-1.212-2.388-2.494-5.153-3.905-8.702l-1.084-2.815c-.188-.512-.367-.969-.567-1.566l-.726-2.6-.752-2.764c-.105-.468-.306-.969-.336-1.429a9.464 9.464 0 01.013-1.407 9.72 9.72 0 012.362-5.555l.246.526s-.571.613-1.152 1.714c-.591 1.089-1.077 2.714-1.062 4.333-.015.401.028.8.157 1.228l.303 1.229.538 2.187.527 2.142c.128-.752 1.507 3.627 2.268 5.446a168.551 168.551 0 01-1.33-4.646l-.104-.394-.047-.184-.056-.253-.192-.9c-.11-.534-.186-.939-.234-1.244-.192-1.216.05-.836.272-.505.223.337.426.634.184-.566l-.272-1.2-.211-.852-.125-.497c-.016-.167-.042-.341-.049-.526a7.881 7.881 0 01.28-2.656 7.855 7.855 0 011.782-3.2c.632-.894.788-1.029 1.308-1.426a6.865 6.865 0 011.313-.729 7.83 7.83 0 011.249-.424c.481-.158 1.187-.116 1.951-.19-.73.047-1.327.063-1.667.16-.338.099-.484.2-.418.226.073.041.333-.018.894-.025.575.01 1.417-.001 2.569-.045l4.099-.547c1.521.22 1.652.365 1.074.47-.289.052-.755.094-1.313.13l-2.226.149c-1.713.127-3.461.208-4.293.343-.396.101-.586.2-.479.225.12.047.482-.051 1.35.031-2 .087-4.283 1.384-5.435 3.523a6.699 6.699 0 00-.819 3.401c.003 1.14.496 2.218.809 3.224l.931 2.677c.143.409.265.695.379.959l.317.709c.386.813.616 1.077.613.509l-1.1-3.61a91.063 91.063 0 00-.988-2.945c-.514-1.74-.304-3.277.275-4.604.604-1.308 1.657-2.549 3.487-3.214.89-.36 2.047-.313 3.375-.383l2.141-.061c.363-.005.82-.021 1.143-.014l1.041.023 1.223.287c4.04-.195 4.692-.659 6.904-.939.199.163 1.226.285 3.821.332 6.821-.678 11.349-.811 17.641-1.55-8.374.277-11.953.149-15.6.012-1.823-.068-3.664-.138-6.128-.16a204.63 204.63 0 00-4.242.009l-2.614.043-1.456.033-.768.02-1.131.075c1.187-.135 2.229-.15 3.814-.216l5.069-.2c3.474-.158 6.704-.38 7.077-.745l-.162.528c5.621-.274 11.238-.546 18.296-.372l-4.309.297c9.356-.367 15.553.801 22.935-.077-2.608-.047-4.724-.031-6.333.049 4.816-.235 10.857-.182 16.091-.093l10.829-.871c-.095.262 6.767.277 3.457.695 7.797.401 11.472-.385 15.978-.516 7.984.561-6.917.25-7.699.979 11 .244 22.659.023 28.866-.451-2.243-.106-3.333-.197-3.219-.325.333.166 4.765.123 7.236.128l1.698-.343c4.115.232 3.536.434.035.692 1.292.022 2.666-.035 4.071-.103l2.126-.103 1.069-.042.625-.013.358.003c.156.006.234.001.595.034l-.512-.027c1.486-.026 2.952.007 4.343.176-1.388.086-2.854.138-4.343.17l.476.025c-.343-.031-.421-.026-.573-.032l-.353-.004-.619.005-1.071.013-2.126.012-4.044-.005c-2.55-.005-4.735 0-6.124.102 3.475-.083 6.096-.062 8.341.012 1.123.037 2.152.086 3.148.142l1.476.087c.524.041.819.031 1.895.14l-.425-.022c4.031.25 8.502.493 17.487.272.219.164-2.794.483.634.487 7.943-.127 2.075-.707 4.556-1.088-6.114.214-8.959.006-12.508-.426l1.632-.279c.247.145 4.087.152 5.218.291l.988-.567c-.456.627 5.688 1.104 10.516.869-4.879-.454-3.562-.431-4.889-1.145 6.789-.679 7.661.664 15.271-.056-.57.202-7.214.354-1.473.507 4.752.026 4.118-.462 7.306-.619-3.59.523-2.668.911-6.558 1.532-8.443.067-3.406-.006-11.659.223l6.985.441c-7.153.086-5.202.599-5.791.799 12.217.529 9.207-.796 17.067-.66 3.789-.359-7.363-.074-1.436-.45 7.351.075 1.676-.342 9.926-.57l-1.381.24c2.521.31 5.015-.073 7.933-.126 3.21-.159-3.634-1.815 9.562-1.854-.646.146-.884.239-.884.299l-12.872 4.393c13.37-.013 28.777.105 44.261.396 3.646.858-11.051.71-10.104 1.097l-7.062-.174c.396-.364 14.795-.115 8.417-.757-12.47.264-18.128-.153-29.958.599 3.675.859 15.581-.156 23.277.507-3.232-.055-5.96.04-8.608.164l23.182.357 1.848-.208c-5.542-.096-9.375-.168-9.869-.199 7.347.074 13.544-.404 14.031-1.033l-1.305-.022 2.654-.197c1.71.048 3.434.088 5.148.128zm-72.917 312.584c.273-.358.472-.657.594-.902-.126.255.129.084-.594.902zm-70.97-310.478l29.097.339c-16.994-1.243-28.942-2.185-.58-2.16l1.856-.09c-3.707-.152-10.1-.171-16.114-.081-2.433.22-7.575.736-12.087 1.213l-5.879.648c-1.524.179-2.473.307-2.431.343 1.724.348 4.236-.032 7.37.074l-1.232-.286zm-6.967-2.083c-5.554-.139-4.29.137-5.151.385l5.836-.094c-.739-.062-1.103-.15-.685-.291zm-4.819.633c.624.006 1.156.018 1.435.051l-1.435-.051zm108.021.328l-.57.015 3.998.057c-.533-.039-1.547-.07-3.428-.072zm-11.274-.606l-1.317.455 3.748.051c-.422-.205-.862-.385-2.431-.506zm-36.231-1.486c-2.284.545-9.936.571-10.404 1.201-.488.162 1.121.223 2.927.274l6.448.052c.079-.092.532-.177 1.289-.26-2.253-.078-3.758-.234-2.845-.621 5.791.841 5.188-.601 11.449-.386 1.993-.444-6.967-.438-8.864-.26zM130.033 306.128c.087.164.419.696.902 1.428l-3.338-2.899c-5.466-5.659-9.282-10.754-14.839-15.212-2.206-2.481-3.168-4.027-4.126-5.467a179.924 179.924 0 013.036 3.192c14.842 13.232 6.47 8.168 18.365 18.958zm-11.272-46.872c-.811.039-1.103.141-1.103.141 17.577-1.154 32.05-1.488 41.526-1.443-1.837-.459-10.338-.813-14.375-1.002l3.577-.522 2.233.411 6.21-.475c-1.736-.351-6.751-.278-10.104-.547-.292.1-11.025.708-14.026 1.03l8.577.359c-2.316-.145-13.693-.025-18.205.108-.089.263 7.686.665 8.665.097.925.389-8.038.393-2.37.809-6.716.414-17.403.068-22.361-.125l-.839-.651c-1.36-.063-2.27-.046-2.97.01-.679.051-1.283.174-1.815.267-1.126.2-2.252.354-5.787.242 4.186-.117 3.815-.287 3.153-.426-.651-.141-1.586-.251 2.017-.387-1.175-.082-1.238-.24-1.928-.341-.347-.05-.856-.083-1.758-.08l-1.672.034c-.336.012-.704.025-1.107.041-.393.025-.869.007-1.256.112a8.514 8.514 0 00-2.95 1.966 7.958 7.958 0 00-1.645 2.429c-.361.857-.552 1.786-.447 2.816.126 1.025.502 2.164 1.62 3.193 1.194 1.46.345.712-.185.27-.524-.433-.714-.535 1.971 2.506 1.677 1.698 2.901 2.888 3.814 3.733.848.734 1.354 1.07 1.756 1.327.782.476.956.313 1.343.256a93.192 93.192 0 00-5.701-5.453 72.68 72.68 0 01-2.459-2.271c-.21-.211-.454-.432-.652-.661a4.984 4.984 0 01-.509-.758 5.49 5.49 0 01-.643-2.02s.04.201.146.541c.109.338.291.817.606 1.331.3.526.759 1.031 1.386 1.581l1.827 1.684a220.338 220.338 0 003.304 2.958c.438.383.809.71 1.043.898l.38.314c-1.401-1.629-2.553-2.844-3.544-3.798 1.751 1.719 3.294 3.069 4.612 4.065l2.092 1.64-3.283-3.297-2.716-2.768c-1.57-1.648-2.682-2.75-2.683-3.19a7.862 7.862 0 00.931.659c-.518-.745-1.048-2.031-1.001-3.337.005-1.309.567-2.472.997-3.093.952-.947 2.292-1.395 3.536-1.349l3.534-.112c2.167-.062 3.88-.068 4.538.129l-2.109.278 7.669-.096c2.212-.009 4.654-.018 9.14-.033zm3.061-170.491c-.045.792-.037 1.705.101 2.957.064.609.184 1.374.336 2.213.151.838.339 1.764.575 2.805.941 4.163 2.638 10.164 5.781 19.747l-.554-1.49c2.405 9.9 6.877 18.609 9.875 30.631-2.216-5.592-2.082-5.296-5.003-11.319l2.249 6.041c-1.119-1.517 1.123 4.51 2.524 9.021l-1.95-3.755c-.659-2.766-2.811-9.794-2.903-9.539.563 1.51-2.065-9.526-4.124-15.321-.275.752 3.838 13.061 1.323 7.78 1.864 4.767 1.591 5.519 3.369 10.555-1.869-4.778-1.02-1.006-2.513-4.531l2.806 8.293c-.086.267-4.201-12.042-2.606-5.023 1.306 3.265 3.831 12.29 4.384 12.29l-.089.254c1.875 6.289 1.584 2.525 3.734 10.296.281.01-.008-1.51-.934-4.245-.85-2.29-1.309-2.536-2.898-7.303-.288-2.272 1.784 5.792 1.394 2.256-.193-1.757-4.298-12.553-2.439-9.288l1.873 6.276c.554 0 1.96 4.53 2.325 4.275 1.396 3.758 1.973 7.541 3.648 11.3.839 1.516.547-1.503 2.33 5.031.854 5.277 5.712 20.082 7.583 25.611l1.866 4.766c.178-.512-2.993-9.288-1.6-6.29l2.53 7.553-.379-.524c.755 2.529 1.78 5.036 2.618 7.296-1.113-2.25-2.704-7.768-2.882-6.515 1.027 3.596 1.005 4.202 2.146 7.449-.264-.704-.511-1.304-.556-1.189 2.062 7.286 2.797 6.781 3.541 8.536 2.984 7.037-1.687-7.512-.853-6.756l7.008 21.087c-.745-1.755-1.492-3.522-1.49-2.771 1.406 5.271-.369.247 1.97 7.532.556-.733 3.351 9.011 5.419 14.093.239 1.263.365 1.966.234 1.735-.136-.245-.516-1.385-1.354-4.013-.069.184.035.776.229 1.56.188.763.468 1.724.779 2.738l1.728 5.463c.196.486.421 1.08.683 1.798l-3.544.193c2.377.244 1.946.549-3.091.758l-.254.102 8.579.184c-.99-3.407-2.067-7.08-3.091-10.368-.537-1.724-.934-2.95-1.356-4.178-.413-1.194-.798-2.226-1.146-3.029l.651 1.252c-2.345-8.786-6.813-18.576-7.202-22.847.465.258-.472-1.765.079-1.773l-2.416-6.25.649 1.253-3.554-10.808.185.257-5.07-12.059c-.223.058-.184.415-.891-1.253a48.887 48.887 0 01-1.428-4.167c-.004-.009-.004-.009-.006-.008h.003c-.78-2.681-1.028-4.554-1.939-7.871l3.253 10.066c.633.703.747-.277-.56-5.3.655 2.016 1.214 2.77.463.255-.184-.244-2.334-6.532-1.865-4.025-3.175-9.536-7.118-25.353-12.44-39.672 3.741 10.314-2.158-8.532 1.675 3.019-1.973-8.285-2.797-6.781-5.322-15.063-.009-.771 1.398 4.502 2.421 6.265-4.115-13.798-8.308-22.848-12.339-36.181l.284-.715c-.787-2.267-1.657-4.785-2.562-7.403zm21.408-5.924l8.161-.168-.801-.015 8.053-.393c-4.949-.19-8.208-.726-1.283-.975-.583.202 1.441.449-.966.566 4.641.292 14.824.576 12.169-.161-8.918.696-2.078-.938-9.086-.421 3.761-.48 7.486-.264 11.038-.478-3.697.401.862.91 6.416 1.101 2.417-.119 8.96-.005 12.977-.2-1.432-.45 2.066-.708-4.48-.821a100.05 100.05 0 0110.281.02c-1.651.077-4.537.133-4.337.296 2.687.414 5.833.396 7.569.573l4.141-.072a7.088 7.088 0 01-1.007-.155l4.6-.397c-6.127.212-2.832-.208-2.753-.472-.165.527 3.944.068 6.042.051l-4.556-.557c2.202-.279 7.775.402 6.625-.149-9.667-.221-13.383-.126-22.124.04l3.548.433c-9.862.306-6.083-.742-17.149-.721-4.6.395-16.643.027-16.871.819 1.388-.241-6.891-.704-10.684-.346-4.191.724-16.868.821-13.028 1.151 3.425.009 8.035-.389 10.788.082l-6.644.151 4.36.394c-2.254-.142-2.035.244-.999.824zm148.717 4.458l.257.01-.285-.002.028-.008z"/><path d="M200.734 374.507c1.478 1.225 4.797 4.585 4.417 3.657-.221.382-6.014-5.922-4.417-3.657zM204.433 378.797c.308.163.259-.116 1.769 1.372l-4.204-4.05 2.435 2.678zM206.561 385.043c2.353 1.903 3.829 3.125 7.148 6.486.52 1.989-5.674-5.264-7.874-6.092 6.053 6.191 8.575 7.429 13.673 12.402-2.188-2.801-12.205-13.171-12.947-12.796zM202.913 383.252l3.571 3.239-.293-.379-3.573-3.242zM135.551 303.119c-.077-.537-2.425-2.433-3.618-3.515.91.94 2.144 2.295 3.618 3.515zM366.687 312.403l-25.752 26.196 25.752-26.196zM148.431 262.052c-9.863.307-14.245.867-24.294 1.01 13.215.654 17.454-1.022 28.549-.352l-4.255-.658zM144.952 264.644c-1.635-.611 7.61-.717 6.178-1.166-6.647.15-3.095.584-9.127.531l2.949.635zM99.29 254.775l2.067-.303 1.425-.209.467-.05-.376.018c-.092 0-.282.021-.487.044l-.626.068-1.696.182-.774.25zM174.74 241.823l.461.996-1.311-4.772zM175.665 243.816l-.464-.997.464.997zM104.101 253.218l-.694-.021-.729-.017-1.247.084-3.416.235-3.228.541 4.991-.496 1.845-.185c.577-.056 1.209-.132 1.44-.119l1.038-.022zM143.334 256.501l-3.976.196c.788-.039 6.228.213 3.976-.196zM165.853 212.955l-1.687-4.54.092.49 1.682 4.525zM169.07 254.662c-.009.049-.021.081-.04.087-.208-.057-.242-.099-.177-.13-.41-.722-1.12-3.48-.853-1.532.206.589.364.993.489 1.267-.512.093.009.237.52.381a.352.352 0 01.061-.073zM155.944 202.747a25.77 25.77 0 00-.671-1.888l.671 1.888zM155.944 202.747c.637 2.008 1.103 4.071 1.669 5.407-.591-2.568-.957-3.456-1.669-5.407zM148.54 179.772l.545 1.831c-.811-1.79-.499-.918.206.686.627 1.925.735 1.771.905 1.97l.55 1.131a991.13 991.13 0 01-.664-1.531c-.945-2.99-1.545-4.807-1.542-4.087zM128.975 91.904c1.967 6.778 2.438 8.543 1.974 8.288 1.915 6.419 2.2 5.239 3.561 9.045-2.359-7.202-2.667-8.73-5.535-17.333zM134.51 109.237l.828 2.513a57.965 57.965 0 00-.828-2.513zM153.267 207.871l-1.858-4.01.56 1.51zM128.644 89.687c-.101.077-.108.265-.211.334.208.052.217-.045.234-.146.009-.103.023-.223-.023-.188zM127.39 109.97c.003.75 1.496 5.013 1.97 6.79-.752-2.526-.76-4.777-1.97-6.79zM140.457 87.997c-1.308-.023-3.32-.269-2.449-.571-1.9.179-4.473.823 2.449.571zM123.553 97.659l.187.998 1.683 4.532zM123.622 115.706c2.058 5.044-1.604-8.529 1.577.274-3.214-11.637-.308 1.068-2.932-7.436 1.436 5.013 1.682 7.613 1.355 7.162zM122.267 108.545a88.583 88.583 0 00-.711-2.364l.711 2.364zM172.339 80.65c-.789.046-1.327.096-1.825.147a36.396 36.396 0 001.825-.147zM121.905 78.119s-.668.225-1.569.794a9.028 9.028 0 00-2.753 2.74 8.78 8.78 0 00-1.306 3.634c-.123 1.047-.031 1.736-.031 1.736a8.078 8.078 0 01.391-3.214 8.586 8.586 0 012.099-3.365 8.71 8.71 0 013.663-2.159c.17-.056.343-.091.515-.136.186-.021.381-.029.57-.044l1.143-.08 2.246-.16 2.153-.16c.398-.034.566-.033.803-.044l.658-.027c.855-.038 1.617-.08 2.241-.128 1.248-.096 1.942-.216 1.729-.379a109.854 109.854 0 00-3.427-.045c-.595.003-1.119 0-1.758.02l-2.578.18-2.395.187-1.104.094-.524.046c-.156.039-.303.084-.45.129-1.167.381-2.08.945-2.673 1.442 0 0 .552-.355 1.146-.617.59-.274 1.211-.444 1.211-.444zM217.759 89.343l-3.517.258 4.391.076c-1.257-.098 1.017-.576-.874-.334zM219.483 89.691l-.849-.014c.186.016.456.022.849.014zM156.945 80.965c-2.63-.046-4.733-.028-7.132.088.995.123 7.547.238 7.132-.088zM242.522 88.396l-5.804.112 6.333-.049zM269.608 89.526l1.001.123 4.812-.235-1.016-.122zM234.183 76.687c-3.935-.069-7.008.516-5.979.639l7.629-.026c-1.939-.512-2.117.015-6.54-.114l4.89-.499zM363.083 157.316c.189-1.728 2.901-9.623 3.344-9.941-.204 1.112-1.444 5.465-.388 2.819l1.196-6.547c3.155-8.213-.967 6.697-1.995 10.92 2.809-8.495 3.084-11.19 5.966-20.261a58.528 58.528 0 01-2.277 5.64c-.66.129 2.271-8.244 4.144-14.301-1.466 3.77-.966 1.479-.298-1.394.143-.51.217-.855.255-1.106l.223-.977-.229.725c-.048-.071-.175.064-.444.554-1.445 5.123-3.146 8.851-4.189 12.113 1.939-2.935-3.315 11.183-4.335 15.377l-1.413 4.767-.561 1.773c-.214.324-.18-.22.497-2.98-.535 2.313-2.985 9.816-2.471 9.214l-5.435 17.172a18.087 18.087 0 01-.614 1.417c-.131.613-.115.728-.044.664a122132.46 122132.46 0 01-26.27 82.928l3.011-.021-2.927-.04 5.884-17.349c-1.335 5.262-.381 2.35.816-1.341l.706-2.155c.174-.515.343-.999.491-1.39.296-.782.51-1.19.521-.725a41.52 41.52 0 01-.561 2.14l-.381 1.278-.638 2.019a252.126 252.126 0 01-2.459 7.3c-.054.674.444-.421.965-1.562.522-1.148 1.067-2.339 1.168-2.054a216.293 216.293 0 001.729-5.241l.479-1.576.354-1.27c.434-1.63.73-3.025 1.02-4.416.579-2.781 1.131-5.541 2.699-10.118.232.476-.367 3.423 1.501-2.628l-.412 1.558c2.678-9.79 3.177-7.282 4.152-13.669l.452.319c1.013-4.505 3.717-13.037 5.173-17.867l.006.318c3.704-13.669 2.28-7.609 6.845-22.831l-1.625 7.156c1.899-5.147 1.636-6.527 2.892-10.257.012.299.655-.454-.378 3.118l4.937-18.66c1.013-4.505-.651.774-1.082 1.388z"/><path d="M371.206 134.306c.336-.963.697-2.065 1.092-3.376l-1.092 3.376zM341.22 265.867l-10.464.004c3.201.033 6.598.043 10.464-.004zM378.466 107.619c-1.271 3.104.394-2.501.377-3.118l-3.612 11.415c.21.01.068 1.208.318 1.035l2.917-9.332z"/><path d="M373.818 119.104c.013.429-.251 1.675-.565 3.064l1.979-6.252c-.159-.007-.513.652-1.414 3.188zM384.534 121.175l-.624 2.025-.82 3.104zM373.657 152.501c1.06-2.319 2.289-6.968 2.7-8.523-1.664 5.279-1.05 2.957-2.7 8.523zM378.871 146.98l-1.447 5.138.209-.456zM385.663 263.791l2.607-.033a71.006 71.006 0 00-2.607.033z"/><path d="M333.425 264.295c6.98.195 7.911.315 5.98.416-1.911.101-6.611.181-10.453.299.982-3.493 1.639-6.087.556-3.521a208.253 208.253 0 01-1.211 4.001l8.736-.196-1.254.203 14.545-.066c-.434-.087-.84-.153-1.199-.21l-1.587-.15c-.882-.095-1.269-.191-.905-.374l2.934.028 1.506.031c.885.022 1.54.048 2.035.075.991.055 1.342.118 1.599.192.514.148.651.337 4.787.567l12.604-.066-1.021.109c1.062-.008 1.53-.055 1.895-.113l21.236-.114 14.601-.078 1.533-.036c.391-.082.615-.131.714-.208.102-.077.077-.201.012-.296-.096-.195-.492-.422.629-.691-.713.001-1.498-.023-2.316-.048l-7.096-.054c-4.542-.006-8.06.08-8.44.443.302-.1.894-.301-.922-.387l-5.18.6 4.939.191c-5.209.598-22.029.465-25.07.094 9.564-.205 4.765-.924 18.091-.533-.6-.185-3.039-.51-.038-.611-7.807.106-15.209.076-22.681.098a885.89 885.89 0 00-11.319.094c-5.93.1-11.978.203-18.24.311zM368.809 311.089l.041-.134c-.175.224-.221.307-.041.134zM372.578 307.447l4.876-5.886-8.35 8.43-.255.964c.651-.831 3.413-3.952 4.692-4.954l-.963 1.446zM383.397 295.008c-4.183 4.482-3.53 4.665-.977 2.491-3.785 4.173-2.547 1.651-4.847 4.831.391.212 5.118-4.869 6.189-6.051l-.365-1.271zM411.906 266.936c.01-.01-.008.354-.019.364l.458-.412c.249-.196.405-.476.406-.476 0 0-.193.174-.412.301-.219.127-.433.223-.433.223zM411.888 267.301a6.605 6.605 0 00-.271.252l-.604.53c.2.058.405.104.676.008.057-.165.102-.319.217-.434a2.114 2.114 0 00-.018-.356zM403.574 275.281a334.251 334.251 0 00-4.421 4.289l4.421-4.289zM407.088 271.98l-.155.046-3.358 3.255c1.255-1.181 2.383-2.239 3.513-3.301zM411.012 268.083c-.113-.031-.226-.067-.341-.089l-.087-.014-.044-.005c-.027.011-.075.043-.113.066a7.567 7.567 0 00-.559.388c-.844.638-2.119 1.8-4.232 3.994l1.297-.397 2.29-2.222 1.574-1.527.215-.194zM366.543 183.779l-1.234 4.664.215-.467 1.233-4.661zM357.775 210.167a81.046 81.046 0 00-.665 2.847c.336-1.21.572-2.182.665-2.847zM354.214 230.722c-2.111 5.277 1.841-7.619-1.51 2.33-.648.765.364-4.076 2.042-8.729.229.485-1.234 4.661.039 1.877.591-3.256 1.242-4.359.373-3.435 1.344-5.367 1.158-6.071 1.951-9.751-1.788 6.436-6.564 19.625-8.455 27.914-.783 4.651.932 2.223 1.834 2.53.427-.603 4.189-12.11 3.726-12.736zM357.818 222.509c.838-2.486 1.044-3.262 1.456-4.82-.443.315-.829 2.795-1.456 4.82zM357.757 257.525c.501-.135 5.247-.303 4.227-.537l-7.195.17c1.688.023 2.284.189 2.968.367zM351.633 257.232l3.155-.074a50.942 50.942 0 00-3.155.074z"/><path d="M358.1 257.609l-.343-.084c-.101.029-.082.059.343.084zM391.06 287.46c-.113-.257-2.27 2.121-3.353 3.313.941-.909 2.301-2.148 3.353-3.313zM306.441 373.535l-2.149 1.856c.794-.621 1.2-.94 2.149-1.856zM280.626 409.454c-.022.094-.14.272-.311.5.176-.223.285-.393.311-.5zM280.316 409.954c-1.216 1.522-5.68 5.509-6.965 7.262l.121-.265-2.688 2.967c2.629-2.671 8.221-8.205 9.532-9.964z"/></g></svg>