<svg xmlns="http://www.w3.org/2000/svg" width="792.001" height="792.001"><path d="M526.599 603.244L420.918 708.628V83.353l105.681 105.384c9.725 9.7 25.511 9.7 35.235 0 9.724-9.699 9.724-25.437 0-35.136L414.855 7.067C409.659 1.896 402.78-.306 396 .04c-6.804-.371-13.683 1.831-18.879 7.027L230.167 153.6c-9.724 9.7-9.724 25.437 0 35.137 9.725 9.699 25.511 9.699 35.235 0L371.083 83.353v625.275L265.402 603.244c-9.724-9.699-25.511-9.699-35.235 0-9.724 9.7-9.724 25.437 0 35.137l146.954 146.558c5.196 5.171 12.075 7.373 18.855 7.027 6.805.346 13.684-1.856 18.855-7.027l146.953-146.558c9.725-9.7 9.725-25.437 0-35.137-9.699-9.699-25.461-9.699-35.185 0z"/></svg>